<svg version="1.1" id="Layer_1" xmlns="http://www.w3.org/2000/svg" xmlns:xlink="http://www.w3.org/1999/xlink" x="0px" y="0px"
	 width="100%" viewBox="0 0 580 430" enable-background="new 0 0 580 430" xml:space="preserve">
<path fill="#000000" opacity="1.000000" stroke="none" 
	d="
M360.000000,431.000000 
	C240.000031,431.000000 120.500053,431.000000 1.000064,431.000000 
	C1.000043,287.666718 1.000043,144.333466 1.000021,1.000141 
	C194.333237,1.000094 387.666473,1.000094 580.999756,1.000047 
	C580.999878,144.333191 580.999878,287.666382 580.999939,430.999786 
	C507.500000,431.000000 434.000000,431.000000 360.000000,431.000000 
M392.008545,188.990677 
	C392.008545,188.990677 392.023743,188.955826 391.919983,188.448471 
	C391.629181,188.291031 391.338348,188.133606 391.013306,187.984741 
	C391.013306,187.984741 391.022614,187.950668 390.908325,187.426727 
	C390.601624,187.356003 390.294922,187.285263 389.531219,187.064758 
	C389.531219,187.064758 389.060760,186.965103 388.918121,186.441910 
	C388.608307,186.366241 388.298462,186.290573 387.533905,186.063309 
	C387.533905,186.063309 387.065002,185.963760 386.917053,185.443451 
	C386.607391,185.364960 386.297760,185.286453 385.542725,185.052414 
	C385.542725,185.052414 385.079651,184.962234 384.844391,184.356094 
	C384.228394,184.301056 383.612427,184.246033 382.546234,184.044037 
	C382.546234,184.044037 382.079376,183.964554 381.703979,183.240143 
	C374.109802,181.783997 366.567932,180.175613 358.740631,181.950790 
	C353.185944,183.210556 347.518646,183.973862 341.067322,185.021881 
	C338.679138,185.405640 336.290985,185.789383 333.114868,186.018524 
	C327.158295,187.071838 321.201752,188.125168 314.373322,189.035858 
	C308.895142,190.099960 303.416962,191.164047 297.101044,192.077805 
	C293.589447,192.655914 290.095856,193.410019 286.562134,193.771805 
	C280.958710,194.345490 274.558411,197.651489 270.277161,191.582260 
	C266.308380,185.955994 262.850037,179.835236 260.060760,173.536392 
	C251.472168,154.141174 243.261337,134.577560 235.031387,115.025650 
	C233.576660,111.569626 231.692017,109.921242 227.901001,111.590012 
	C227.901001,111.590012 227.688354,111.590851 227.348389,111.054184 
	C226.866135,111.357887 226.383881,111.661591 225.192154,112.319199 
	C226.082153,116.233566 226.972137,120.147926 227.942307,124.725456 
	C227.999329,125.164131 228.056335,125.602798 228.003052,126.679184 
	C228.320526,127.162567 228.638000,127.645950 228.982864,128.947281 
	C231.274216,137.991669 233.565582,147.036072 235.941162,156.879776 
	C237.556946,163.107788 239.282593,169.309830 240.762802,175.569901 
	C242.991760,184.996445 245.049072,194.463577 246.788544,204.497467 
	C243.109207,206.953400 238.835129,208.855392 237.242172,214.286560 
	C237.103271,215.410461 236.964355,216.534378 236.791977,217.929092 
	C223.045135,219.620895 209.330887,221.345444 195.606750,222.987274 
	C182.054581,224.608536 168.492416,226.146133 154.934631,227.720444 
	C154.983261,228.454117 155.031891,229.187805 155.080521,229.921478 
	C159.373962,229.563934 163.667404,229.206406 168.878433,229.020279 
	C172.210129,229.010681 175.570953,229.282471 178.868301,228.941086 
	C190.911728,227.694199 202.933990,226.242859 215.862457,224.997543 
	C223.557312,224.416702 231.252167,223.835876 239.231110,223.848633 
	C243.857925,229.176147 248.484741,234.503662 252.788345,240.654129 
	C251.650269,240.786316 250.499557,240.851242 249.376236,241.062027 
	C243.733826,242.120911 238.098557,243.217896 232.135590,244.432480 
	C231.942856,244.391495 231.750137,244.350525 230.916519,244.048431 
	C225.270920,244.761536 219.625305,245.474640 213.103851,246.034286 
	C202.710571,247.045273 192.311752,248.003113 181.926193,249.088058 
	C176.094894,249.697235 170.282806,250.495300 164.466934,251.246017 
	C154.953781,252.473969 145.437698,253.682663 135.936203,254.996033 
	C129.578217,255.874893 123.243332,256.920898 116.029678,257.967590 
	C113.324181,258.296753 110.618683,258.625916 107.463432,259.053253 
	C107.463432,259.053253 107.021812,259.183289 106.166695,258.997681 
	C103.737999,259.309692 101.309311,259.621704 98.013687,259.997864 
	C97.021210,259.998993 96.017067,259.901001 95.038040,260.016357 
	C83.947365,261.322723 72.847420,262.563049 61.778107,264.032990 
	C56.116795,264.784821 50.512173,265.963501 44.425598,267.020935 
	C44.425598,267.020935 43.986149,267.163116 43.163841,266.999390 
	C40.112522,267.239014 37.355209,267.179260 35.928085,263.578339 
	C35.577427,262.693573 33.605415,262.451416 31.299292,261.440704 
	C33.915257,266.901459 35.880173,271.003143 37.653221,274.704346 
	C39.901852,273.098877 41.980663,271.614655 44.949379,270.006897 
	C47.947231,270.028137 50.945084,270.049377 54.001209,270.006256 
	C54.001209,270.006256 53.928947,270.053955 54.060402,270.583069 
	C54.373634,270.670471 54.686863,270.757843 55.839619,270.987030 
	C58.225285,270.601715 60.610947,270.216400 63.879128,269.997986 
	C66.943405,269.678711 70.007675,269.359467 73.543266,268.960083 
	C73.543266,268.960083 73.998734,268.814728 74.849075,268.987549 
	C77.265938,268.673553 79.682808,268.359528 82.557083,267.983429 
	C82.557083,267.983429 82.996056,267.840729 83.899307,268.003113 
	C87.625572,267.683563 91.351845,267.363983 95.546135,266.969849 
	C95.546135,266.969849 95.997620,266.825684 96.865700,266.991302 
	C99.600960,266.675659 102.336227,266.359985 105.543991,265.969574 
	C105.543991,265.969574 105.998741,265.821014 106.899994,265.985474 
	C110.612000,265.670044 114.324013,265.354614 118.510048,264.974945 
	C118.510048,264.974945 118.982430,265.050354 119.146172,265.610107 
	C119.425446,265.881409 119.704727,266.152710 119.818924,267.119659 
	C122.203056,272.610962 124.363754,273.099609 128.771011,268.860840 
	C130.123383,267.560181 130.970337,265.734009 132.911057,264.018799 
	C137.306183,263.629486 141.699051,263.212219 146.096878,262.856262 
	C158.034988,261.890015 169.975235,260.949707 181.883392,260.781677 
	C183.175003,261.742279 184.844681,263.773071 185.691299,263.473999 
	C188.957123,262.320343 191.959961,260.422302 195.784302,258.466827 
	C205.476913,257.649109 215.169540,256.831360 224.763565,256.706604 
	C225.477005,258.928650 226.190430,261.150696 226.903870,263.372742 
	C228.628342,262.256866 230.352814,261.140991 232.602829,260.377686 
	C233.377258,261.586609 234.151703,262.795563 235.200287,264.641663 
	C235.181061,266.079254 235.161835,267.516846 234.991425,269.759491 
	C234.240585,273.906250 231.454803,278.506226 235.688583,281.975555 
	C244.826981,289.463898 255.019165,293.254211 267.673676,288.909271 
	C275.435394,288.013855 279.883728,283.267273 281.952301,276.141602 
	C282.500122,274.254517 281.927307,272.042114 281.799713,269.237793 
	C281.226990,267.159668 280.654266,265.081512 280.678986,262.813141 
	C281.780670,261.610107 282.882324,260.407043 284.560730,258.856384 
	C286.751007,259.840393 288.910980,261.587097 291.136871,261.675598 
	C300.467590,262.046631 309.954315,262.958099 319.131805,261.752502 
	C336.114502,259.521606 352.948151,256.089050 369.784882,252.850266 
	C375.602142,251.731232 381.243988,249.700241 387.752991,247.993881 
	C391.170166,246.586182 394.587341,245.178482 398.671295,243.705215 
	C400.821899,241.155701 402.972473,238.606186 405.679352,235.829742 
	C406.256775,235.288284 406.834198,234.746811 408.108887,234.202377 
	C410.012177,233.503983 411.915497,232.805603 413.954071,232.684860 
	C413.946106,233.078796 413.938141,233.472733 413.281677,234.247208 
	C408.953949,240.666672 409.903046,245.131638 416.380981,249.127319 
	C417.902130,250.065598 419.227142,251.342880 420.792816,252.184387 
	C427.906921,256.008057 435.225952,257.847198 443.684143,254.243576 
	C444.627197,254.450363 445.643585,254.997177 446.502075,254.811951 
	C456.389923,252.678467 465.302704,241.915497 458.634857,229.323700 
	C457.762390,228.525803 456.889893,227.727905 456.007935,226.995865 
	C456.007935,226.995865 456.072540,226.979980 455.994598,226.192139 
	C453.138275,220.944458 448.024078,220.578186 442.270966,219.829926 
	C440.887360,219.532776 439.503784,219.235641 437.869690,218.386551 
	C437.861908,217.576462 437.854095,216.766373 438.233826,215.287018 
	C440.410248,214.766006 442.703827,214.524414 444.740601,213.670364 
	C450.299652,211.339325 455.603119,208.321686 461.280579,206.369156 
	C468.689392,203.821259 476.360443,202.035965 484.024017,200.670288 
	C485.252533,200.900284 486.846558,201.734787 487.644287,201.252380 
	C490.610718,199.458603 493.315308,197.231812 496.062500,195.079437 
	C496.062500,195.079437 496.154633,195.128311 496.679871,195.049713 
	C496.845367,194.752808 497.010834,194.455887 497.585327,193.967331 
	C497.585327,193.967331 498.004913,193.800171 498.629120,193.964783 
	C499.113159,193.657211 499.597229,193.349625 500.552246,192.963287 
	C500.552246,192.963287 501.002838,192.805267 501.627960,192.965775 
	C502.107727,192.656433 502.587524,192.347092 503.545990,191.954910 
	C503.545990,191.954910 504.005981,191.798569 504.696503,191.967300 
	C505.481628,191.659485 506.266754,191.351669 507.539856,190.947449 
	C507.539856,190.947449 508.011627,190.789764 508.630219,190.960526 
	C509.105164,190.653839 509.580139,190.347153 510.537659,189.951889 
	C510.537659,189.951889 511.002502,189.794922 511.523651,189.914673 
	C511.704956,189.623840 511.886261,189.333023 512.546265,188.957047 
	C512.546265,188.957047 513.006958,188.801361 513.625061,188.967819 
	C514.102478,188.665070 514.579956,188.362320 515.000000,188.000000 
	C515.000000,188.000000 515.058044,188.060089 515.859070,187.999451 
	C516.820740,187.885696 517.826538,187.915787 518.737366,187.636368 
	C530.180908,184.125519 541.610657,180.569962 553.649536,176.844650 
	C553.798950,176.243317 553.948364,175.641983 554.592041,174.899734 
	C554.658569,174.604828 554.725159,174.309921 554.739990,173.319458 
	C554.174438,172.162857 553.608948,171.006256 552.798645,169.228149 
	C551.974854,168.520203 551.151001,167.812241 550.730286,167.450699 
	C548.915955,169.136398 547.625366,171.260345 545.832642,171.845230 
	C536.775757,174.800003 527.592102,177.367554 518.445312,180.045029 
	C510.063019,182.498718 501.634491,184.801407 493.293427,187.387024 
	C484.509796,190.109833 475.856415,193.256683 467.056427,195.922043 
	C447.719696,201.778748 428.326385,207.448608 408.432434,212.955521 
	C408.236359,212.633453 408.040253,212.311401 407.774841,211.251114 
	C405.532837,206.829102 403.290833,202.407074 401.020691,197.982086 
	C401.020691,197.982086 401.018250,197.953873 400.915924,197.445236 
	C400.625122,197.283447 400.334351,197.121658 400.000000,196.999390 
	C400.000000,196.999390 400.039490,196.955826 399.921692,196.445572 
	C399.628296,196.281830 399.334930,196.118088 399.000000,196.000000 
	C399.000000,196.000000 399.044830,195.957703 398.919891,195.442490 
	C398.624298,195.270309 398.328735,195.098129 397.939789,194.477539 
	C397.939789,194.477539 397.784943,194.046478 397.846649,193.393387 
	C396.548462,192.334198 395.250244,191.275009 393.517426,190.060867 
	C393.517426,190.060867 393.066406,189.963516 392.928131,189.456451 
	C392.633209,189.296173 392.338318,189.135880 392.008545,188.990677 
z"/>
<path fill="#F6F8FB" opacity="1.000000" stroke="none" 
	d="
M397.784943,194.046478 
	C397.784943,194.046478 397.939789,194.477539 398.069153,194.945770 
	C398.480652,195.595245 398.762726,195.776474 399.044830,195.957703 
	C399.044830,195.957703 399.000000,196.000000 399.103851,196.215302 
	C399.484955,196.605667 399.762238,196.780746 400.039490,196.955826 
	C400.039490,196.955826 400.000000,196.999390 400.099976,197.216309 
	C400.390594,197.735809 400.663361,197.909363 401.018250,197.953873 
	C401.018250,197.953873 401.020691,197.982086 401.007263,198.330536 
	C400.477203,199.773132 399.960541,200.867294 399.155731,201.733078 
	C396.648712,198.477692 394.825439,194.409775 389.671265,198.084747 
	C388.396088,198.973602 387.485107,199.925629 386.236694,200.876633 
	C385.676300,200.905243 385.453339,200.934875 385.012695,200.643692 
	C381.880249,200.298676 378.965454,200.274460 375.697510,200.181442 
	C374.168152,200.290131 372.991852,200.467651 371.385681,200.517960 
	C370.227478,200.789764 369.499176,201.188782 368.422852,201.550735 
	C366.384247,202.367538 364.693665,203.221405 362.888855,203.809723 
	C359.651031,201.563400 358.296234,203.854385 356.481354,205.989212 
	C346.956177,206.756607 337.822571,207.491196 328.701080,208.354355 
	C328.085693,208.412582 327.562103,209.440796 326.622559,210.016068 
	C325.502960,210.032059 324.756653,210.049866 323.773071,209.781128 
	C322.060394,209.330383 320.584900,209.166153 319.010040,208.622620 
	C318.867432,207.199203 318.824249,206.155090 318.885864,204.725159 
	C319.531830,198.021484 323.021454,193.637863 328.133575,190.275833 
	C330.103882,188.980057 331.982452,187.544815 333.902802,186.173126 
	C336.290985,185.789383 338.679138,185.405640 341.943848,185.008392 
	C355.892822,184.122375 368.920898,181.559235 382.079376,183.964554 
	C382.079376,183.964554 382.546234,184.044037 382.968231,184.334198 
	C383.953369,184.736984 384.516510,184.849609 385.079651,184.962250 
	C385.079651,184.962234 385.542725,185.052414 385.890137,185.326019 
	C386.457733,185.847382 386.733582,185.968765 387.065002,185.963760 
	C387.065002,185.963760 387.533905,186.063309 387.884827,186.334412 
	C388.455688,186.851654 388.730713,186.971527 389.060760,186.965103 
	C389.060760,186.965103 389.531219,187.064758 389.876587,187.331833 
	C390.433716,187.841614 390.700592,187.958878 391.022614,187.950668 
	C391.022614,187.950668 391.013306,187.984741 391.108185,188.215881 
	C391.396698,188.745499 391.670258,188.915100 392.023743,188.955826 
	C392.023743,188.955826 392.008545,188.990677 392.112274,189.222321 
	C392.499481,189.623810 392.782928,189.793671 393.066406,189.963516 
	C393.066406,189.963516 393.517426,190.060867 393.744324,190.491394 
	C395.242462,191.963440 396.513702,193.004959 397.784943,194.046478 
z"/>
<path fill="#7E3136" opacity="1.000000" stroke="none" 
	d="
M253.111542,239.831177 
	C248.484741,234.503662 243.857925,229.176147 239.453430,223.454346 
	C241.076157,222.752808 242.646545,222.730484 243.814575,222.033676 
	C244.540024,221.600906 244.655746,220.146042 245.051270,218.787537 
	C242.875931,218.425171 240.694458,218.425171 238.193130,218.425171 
	C238.131332,217.086227 238.058899,215.517029 237.986481,213.947830 
	C238.835129,208.855392 243.109207,206.953400 247.377365,204.231934 
	C249.011017,203.983734 250.055862,204.001068 251.016388,204.376984 
	C247.456818,208.539536 247.255249,213.224518 247.256729,218.367767 
	C248.174515,221.812744 249.199783,224.882996 250.300049,228.283859 
	C253.184052,232.706161 257.344147,235.034897 261.852020,233.309464 
	C266.807037,231.412903 271.163544,227.952576 276.091553,224.914642 
	C276.588654,223.385071 276.432739,221.905624 277.048126,220.896652 
	C277.816589,219.636719 279.743469,217.658401 280.263733,217.904739 
	C283.485046,219.429977 285.275177,217.404495 287.695648,215.767365 
	C293.382538,217.903458 298.674225,219.995880 304.120544,222.362549 
	C305.163422,223.167831 306.051727,223.698898 307.105286,224.487000 
	C308.412689,225.588150 309.554779,226.432236 310.849426,227.549561 
	C311.642273,228.865540 312.282623,229.908264 312.549561,231.002167 
	C307.448578,232.762726 302.720978,234.472092 297.738647,236.154785 
	C297.262421,236.365173 297.040985,236.602249 296.624146,236.898743 
	C296.428711,236.958160 296.097595,237.197327 295.732452,237.236298 
	C293.528076,238.045044 291.750183,239.234695 289.839294,239.513718 
	C280.295349,240.907333 270.724030,242.127518 261.141357,243.225403 
	C259.801788,243.378876 258.346130,242.518799 256.793335,241.822266 
	C255.465500,240.954834 254.288528,240.393005 253.111542,239.831177 
z"/>
<path fill="#D9DFE8" opacity="1.000000" stroke="none" 
	d="
M385.230347,200.964493 
	C385.453339,200.934875 385.676300,200.905243 386.454224,201.088577 
	C388.351929,202.585144 389.694733,203.868744 391.439301,205.145844 
	C394.375366,204.080048 396.909637,203.020767 399.443909,201.961456 
	C399.960541,200.867294 400.477203,199.773132 401.021362,198.332001 
	C403.290833,202.407074 405.532837,206.829102 407.448090,211.633270 
	C406.107025,212.500381 404.958588,212.816925 404.101654,213.499496 
	C400.413300,216.437393 396.987091,219.735657 393.132660,222.426010 
	C388.133148,225.915588 382.253662,224.373169 378.700195,219.352692 
	C378.113647,218.523926 376.469238,218.032104 375.338531,218.072906 
	C370.882355,218.233704 366.423462,218.550491 361.988647,219.025208 
	C349.518799,220.360016 337.060364,221.801788 324.364746,223.043945 
	C323.725616,222.074722 323.319183,221.262955 322.926514,220.020020 
	C323.296967,216.415115 323.653625,213.241394 324.010315,210.067657 
	C324.756653,210.049866 325.502960,210.032059 326.617798,210.382385 
	C327.223236,212.535065 324.667206,215.270096 328.452057,215.845886 
	C332.306122,216.432190 334.631195,214.916718 334.584625,210.526764 
	C334.892853,212.196030 335.201080,213.865280 335.439514,215.156586 
	C341.981506,214.691162 348.199799,214.248779 354.738159,213.695953 
	C357.056702,212.042740 359.055237,210.499924 361.266510,209.302246 
	C361.860474,210.336563 362.302185,211.652313 362.613953,211.622192 
	C368.455505,211.058167 369.855804,208.712753 368.770874,201.587799 
	C369.499176,201.188782 370.227478,200.789764 371.057495,200.788239 
	C371.866974,203.739334 368.277344,208.813354 375.448303,207.850464 
	C379.537994,207.308624 383.225189,206.728729 387.182770,206.106293 
	C386.384521,204.004120 385.807434,202.484314 385.230347,200.964493 
z"/>
<path fill="#C9D2DC" opacity="1.000000" stroke="none" 
	d="
M324.597443,223.201385 
	C337.060364,221.801788 349.518799,220.360016 361.988647,219.025208 
	C366.423462,218.550491 370.882355,218.233704 375.338531,218.072906 
	C376.469238,218.032104 378.113647,218.523926 378.700195,219.352692 
	C382.253662,224.373169 388.133148,225.915588 393.132660,222.426010 
	C396.987091,219.735657 400.413300,216.437393 404.101654,213.499496 
	C404.958588,212.816925 406.107025,212.500381 407.482727,212.002380 
	C408.040253,212.311401 408.236359,212.633453 408.702454,213.439316 
	C409.714874,214.728241 410.457275,215.533371 411.121948,216.624985 
	C410.644440,217.625458 410.244568,218.339447 409.490173,219.051102 
	C408.036957,220.127472 406.725311,221.061020 405.874451,222.308777 
	C400.740570,229.837341 391.109589,232.909729 382.679718,229.442459 
	C377.111328,227.152130 371.674347,224.371933 365.414703,226.949066 
	C364.985504,227.125793 364.421295,226.947083 363.925354,226.993088 
	C352.905029,228.015167 341.885498,229.045639 330.550903,229.960266 
	C329.123230,226.980484 324.015717,227.504822 324.597443,223.201385 
z"/>
<path fill="#EEF4F8" opacity="1.000000" stroke="none" 
	d="
M227.956436,111.494690 
	C231.692017,109.921242 233.576660,111.569626 235.031387,115.025650 
	C243.261337,134.577560 251.472168,154.141174 260.060760,173.536392 
	C262.850037,179.835236 266.308380,185.955994 270.277161,191.582260 
	C274.558411,197.651489 280.958710,194.345490 286.562134,193.771805 
	C290.095856,193.410019 293.589447,192.655914 297.370880,192.414673 
	C297.099731,193.830215 296.558746,194.908859 295.583801,195.991028 
	C288.856110,196.665955 282.562408,197.337372 275.990112,197.718750 
	C271.173737,198.016510 266.635925,198.604309 262.075134,198.830444 
	C262.029449,197.986176 262.006805,197.503540 261.947876,196.655029 
	C261.215118,194.803696 260.434631,193.351257 259.835815,191.827454 
	C255.881393,181.764465 252.014587,171.666672 247.990204,161.631958 
	C247.318573,159.957260 246.017273,158.535065 245.003784,156.748413 
	C245.000641,156.500656 244.996948,156.005081 244.998230,155.603333 
	C243.336258,151.466064 241.672989,147.730530 240.004410,143.665466 
	C239.994949,142.896500 239.990799,142.457077 239.991547,141.609924 
	C239.995590,140.709015 240.134995,140.163193 239.972656,139.730576 
	C237.743439,133.789444 235.512985,127.847672 233.142532,121.962555 
	C232.931503,121.438652 231.743668,121.308182 231.004990,120.623703 
	C230.993912,119.509842 230.987335,118.767258 230.945557,117.703812 
	C230.281631,116.918335 229.652893,116.453720 229.015564,115.515594 
	C228.656815,113.859627 228.306625,112.677155 227.956436,111.494690 
z"/>
<path fill="#EEF4F8" opacity="1.000000" stroke="none" 
	d="
M224.862152,256.013641 
	C215.169540,256.831360 205.476913,257.649109 195.228943,258.243958 
	C190.420593,258.680420 186.167618,259.339752 181.914627,259.999084 
	C169.975235,260.949707 158.034988,261.890015 146.096878,262.856262 
	C141.699051,263.212219 137.306183,263.629486 132.133820,263.982697 
	C127.674561,264.340363 123.992546,264.734161 119.980583,265.073059 
	C119.427895,265.028870 119.205162,265.039612 118.982430,265.050354 
	C118.982430,265.050354 118.510048,264.974945 118.025360,264.728149 
	C113.693359,264.927948 109.846054,265.374481 105.998741,265.821014 
	C105.998741,265.821014 105.543991,265.969574 104.868797,265.981354 
	C101.461609,266.270630 98.729614,266.548157 95.997620,266.825684 
	C95.997620,266.825684 95.546135,266.969849 94.852173,266.982666 
	C90.437485,267.277252 86.716766,267.558990 82.996056,267.840698 
	C82.996056,267.840729 82.557083,267.983429 81.897812,267.993408 
	C78.825272,268.273834 76.412003,268.544281 73.998734,268.814728 
	C73.998734,268.814728 73.543266,268.960083 72.859924,268.977661 
	C69.116600,269.273895 66.056602,269.552490 62.996609,269.831085 
	C60.610947,270.216400 58.225285,270.601715 55.288033,270.725525 
	C54.525623,270.212433 54.256454,270.075745 53.928947,270.053955 
	C53.928947,270.053955 54.001209,270.006256 53.998074,269.696167 
	C54.001423,268.928497 54.007908,268.470978 54.221313,267.756165 
	C55.284134,267.347595 56.140041,267.196289 57.235168,267.302368 
	C58.982174,267.366150 60.489960,267.172546 62.370285,266.982056 
	C63.487865,266.977570 64.232903,266.969971 65.403198,266.978271 
	C67.901329,266.345978 69.974197,265.697754 72.371696,265.049622 
	C73.129158,265.052155 73.561981,265.054596 74.251404,265.317505 
	C76.338043,265.379578 78.168076,265.181213 80.370773,264.985474 
	C81.488106,264.978821 82.232773,264.969604 83.444359,264.975220 
	C96.592697,263.650940 109.279480,262.357361 121.943115,260.867035 
	C122.760780,260.770782 123.399963,259.158020 124.470352,258.214478 
	C125.515327,258.188904 126.212128,258.199554 127.035309,258.582184 
	C129.695175,259.256866 132.252411,259.942749 134.757507,259.787415 
	C141.187531,259.388672 147.597839,258.649933 154.009720,257.986053 
	C164.535629,256.896210 175.057693,255.768600 185.579269,254.637344 
	C196.755356,253.435699 207.927643,252.198639 219.104248,251.001755 
	C225.347885,250.333115 231.596893,249.714706 238.088348,249.112152 
	C238.333221,249.150635 238.798401,248.986465 238.783112,249.383423 
	C238.777527,251.092682 238.787216,252.404984 238.354370,253.677094 
	C233.913223,254.354492 229.914642,255.072067 225.642090,255.796326 
	C225.199478,255.873245 225.030807,255.943451 224.862152,256.013641 
z"/>
<path fill="#6E7C9C" opacity="1.000000" stroke="none" 
	d="
M386.965942,248.085800 
	C381.243988,249.700241 375.602142,251.731232 369.784882,252.850266 
	C352.948151,256.089050 336.114502,259.521606 319.131805,261.752502 
	C309.954315,262.958099 300.467590,262.046631 291.136871,261.675598 
	C288.910980,261.587097 286.751007,259.840393 284.327148,258.650543 
	C286.457703,251.702057 292.250916,254.446854 296.890045,254.234039 
	C299.113586,260.596985 304.146851,260.097656 309.454498,259.983154 
	C314.950287,259.349884 320.004547,258.708923 325.478577,258.064850 
	C331.349121,258.859131 334.951721,255.791412 338.753967,251.969376 
	C337.437195,251.145462 336.378265,250.482880 335.215027,249.551117 
	C334.577026,248.791168 334.043243,248.300385 333.401001,247.595535 
	C333.292511,247.381470 332.995758,247.004211 333.049805,246.639511 
	C335.349762,243.264267 337.981842,243.339691 340.853271,245.302017 
	C346.811035,249.373611 353.259094,251.011307 361.169281,249.407440 
	C359.748383,248.347168 358.906769,247.719147 358.461365,247.057434 
	C361.418640,247.402390 363.974304,248.056351 366.541779,248.106354 
	C373.347137,248.238907 380.157532,248.110428 386.965942,248.085800 
M367.571686,249.513947 
	C367.571686,249.513947 367.476349,249.566498 367.571686,249.513947 
z"/>
<path fill="#A4AEC2" opacity="1.000000" stroke="none" 
	d="
M411.199646,216.338501 
	C410.457275,215.533371 409.714874,214.728241 408.964355,213.558929 
	C428.326385,207.448608 447.719696,201.778748 467.056427,195.922043 
	C475.856415,193.256683 484.509796,190.109833 493.293427,187.387024 
	C501.634491,184.801407 510.063019,182.498718 518.445312,180.045029 
	C527.592102,177.367554 536.775757,174.800003 545.832642,171.845230 
	C547.625366,171.260345 548.915955,169.136398 550.730286,167.450699 
	C551.151001,167.812241 551.974854,168.520203 552.894409,169.896332 
	C552.662781,171.414581 552.335449,172.264633 551.680115,173.106293 
	C550.914795,173.105484 550.477478,173.113037 549.640747,173.086502 
	C535.156006,177.398483 521.070740,181.744553 506.618286,186.127426 
	C503.418549,187.720642 500.585907,189.277069 497.422302,190.994965 
	C494.060303,191.768814 491.029297,192.381165 487.583862,192.978775 
	C486.020111,193.080093 484.810852,193.004135 483.730255,193.340912 
	C466.396332,198.743301 449.072052,204.176971 431.773499,209.691101 
	C430.659454,210.046219 429.772949,211.115204 428.484161,211.835388 
	C427.792114,211.828644 427.396484,211.838608 426.760101,211.629944 
	C422.023132,212.983582 417.526947,214.555801 412.721527,216.127991 
	C412.008087,216.198151 411.603851,216.268326 411.199646,216.338501 
z"/>
<path fill="#7E3136" opacity="1.000000" stroke="none" 
	d="
M387.359467,248.039841 
	C380.157532,248.110428 373.347137,248.238907 366.541779,248.106354 
	C363.974304,248.056351 361.418640,247.402390 358.210968,246.975525 
	C357.390900,246.905029 357.217438,246.882782 356.868591,246.648590 
	C356.165894,246.359863 355.638550,246.283066 354.716888,246.127655 
	C349.689758,244.350143 345.056946,242.651276 340.241974,240.718842 
	C339.708984,240.320572 339.358154,240.155838 338.848938,239.745483 
	C338.147034,239.316940 337.603607,239.133987 336.823425,238.701385 
	C331.975006,234.556381 327.407959,230.605789 322.716187,226.809357 
	C321.702637,225.989197 320.240051,225.723984 318.845703,224.910477 
	C318.077515,224.035782 317.447906,223.453766 316.753784,222.560852 
	C314.807861,220.484314 312.926392,218.718719 311.021851,216.971176 
	C310.998779,216.989227 311.046173,216.962524 311.110413,216.625214 
	C311.103943,215.608154 311.033203,214.928391 311.163483,213.944763 
	C313.843292,212.546600 316.322052,211.452316 318.890503,210.703217 
	C320.291077,214.182678 321.601898,217.316925 322.912720,220.451187 
	C323.319183,221.262955 323.725616,222.074722 324.364746,223.043945 
	C324.015717,227.504822 329.123230,226.980484 330.708801,230.262207 
	C334.740753,232.965668 338.299866,235.252960 342.131653,237.744904 
	C346.596100,239.264465 350.787872,240.579376 355.344391,242.057388 
	C368.505127,245.331268 381.329163,244.654419 394.193481,242.659286 
	C395.377869,242.475616 396.730194,243.374542 398.004517,243.770782 
	C394.587341,245.178482 391.170166,246.586182 387.359467,248.039841 
z"/>
<path fill="#D9DFE8" opacity="1.000000" stroke="none" 
	d="
M237.843491,249.073669 
	C231.596893,249.714706 225.347885,250.333115 219.104248,251.001755 
	C207.927643,252.198639 196.755356,253.435699 185.579269,254.637344 
	C175.057693,255.768600 164.535629,256.896210 154.009720,257.986053 
	C147.597839,258.649933 141.187531,259.388672 134.757507,259.787415 
	C132.252411,259.942749 129.695175,259.256866 127.458466,258.500244 
	C135.109024,257.110657 142.451706,256.074280 149.819000,255.261124 
	C163.266068,253.776917 176.743698,252.559692 190.177261,250.967010 
	C198.172287,250.019135 206.107605,248.567642 214.522278,247.270142 
	C216.966949,247.150589 219.013535,247.378235 220.939514,246.996887 
	C224.515961,246.288727 228.022034,245.225159 231.557404,244.309555 
	C231.750137,244.350525 231.942856,244.391495 232.697754,244.618225 
	C234.817032,244.889038 236.374161,244.974106 237.953598,245.458817 
	C237.931778,246.930191 237.887634,248.001938 237.843491,249.073669 
z"/>
<path fill="#D9DFE8" opacity="1.000000" stroke="none" 
	d="
M227.928711,111.542351 
	C228.306625,112.677155 228.656815,113.859627 229.050598,115.835693 
	C229.723068,117.094414 230.351929,117.559540 230.980774,118.024673 
	C230.987335,118.767258 230.993912,119.509842 231.002289,121.022736 
	C232.685928,126.717728 234.193130,131.712677 236.132812,136.533615 
	C236.944794,138.551773 238.674301,140.200806 239.986649,142.017654 
	C239.990799,142.457077 239.994949,142.896500 240.008087,144.056702 
	C241.677032,148.520020 243.336990,152.262543 244.996948,156.005081 
	C244.996948,156.005081 245.000641,156.500656 245.000610,157.144897 
	C245.002151,157.955292 244.956100,158.139816 245.012085,158.285004 
	C249.819504,170.750793 254.607437,183.224380 259.524078,195.647034 
	C259.791809,196.323578 261.139313,196.572784 261.984192,197.020920 
	C262.006805,197.503540 262.029449,197.986176 262.070251,199.047272 
	C262.088379,199.625748 261.966095,200.042755 261.589600,200.028793 
	C260.459808,199.995193 259.706512,199.975555 258.932037,199.613892 
	C256.604065,195.848129 254.297302,192.424362 252.258972,188.777740 
	C251.103302,184.171799 249.819778,179.735260 248.183701,175.432785 
	C247.557129,173.785065 246.124985,172.443649 244.900345,170.631363 
	C240.065948,156.041382 235.431961,141.768982 230.648849,127.546707 
	C230.203552,126.222595 228.813522,125.216202 227.862137,124.062294 
	C226.972137,120.147926 226.082153,116.233566 226.001617,112.087234 
	C227.103516,111.767128 227.395935,111.678993 227.688354,111.590851 
	C227.688354,111.590851 227.901001,111.590012 227.928711,111.542351 
z"/>
<path fill="#464D4B" opacity="1.000000" stroke="none" 
	d="
M458.861816,229.872803 
	C465.302704,241.915497 456.389923,252.678467 446.502075,254.811951 
	C445.643585,254.997177 444.627197,254.450363 442.962433,254.107635 
	C439.190735,252.617493 436.140717,251.263290 433.021484,249.586884 
	C432.016418,247.836838 431.080627,246.409012 430.046387,244.608322 
	C429.530365,242.481461 429.112701,240.727478 428.742310,238.575592 
	C428.774109,237.111328 428.758636,236.044922 428.834595,234.609726 
	C428.895660,233.486481 428.865265,232.732056 428.937134,231.709839 
	C429.785950,230.893967 430.532562,230.345856 431.670288,229.969772 
	C432.310608,231.030533 432.879303,231.964691 432.760376,232.801056 
	C431.276550,243.236023 435.235626,247.897522 446.230042,248.445984 
	C449.295044,247.288528 452.432861,246.312180 454.804901,244.390549 
	C456.500397,243.017014 457.329865,240.351074 454.080475,238.612976 
	C454.111450,237.853409 454.132233,237.419495 454.395294,236.744171 
	C453.839966,233.225143 453.042358,229.947556 452.631317,226.702942 
	C454.036102,226.817276 455.054321,226.898636 456.072540,226.979980 
	C456.072540,226.979980 456.007935,226.995865 455.957062,227.331207 
	C456.891388,228.401978 457.876617,229.137390 458.861816,229.872803 
z"/>
<path fill="#D9DFE8" opacity="1.000000" stroke="none" 
	d="
M296.017761,195.987518 
	C296.558746,194.908859 297.099731,193.830215 297.789734,192.489838 
	C303.416962,191.164047 308.895142,190.099960 314.601624,189.380020 
	C310.003815,194.121170 305.684174,198.755936 307.088409,206.499359 
	C307.402222,209.233856 307.767761,211.571426 308.108215,214.282104 
	C309.070801,215.424316 310.058502,216.193420 311.046173,216.962524 
	C311.046173,216.962524 310.998779,216.989227 310.980865,217.316895 
	C311.996094,219.075394 313.029236,220.506241 313.978333,222.299042 
	C311.576172,223.183990 309.258118,223.706985 306.940033,224.229950 
	C306.051727,223.698898 305.163422,223.167831 304.271851,222.008820 
	C304.818939,218.952179 305.369263,216.523468 305.917297,214.097473 
	C304.302216,212.725113 302.689514,211.350052 300.918030,209.659988 
	C299.178802,204.892487 297.598297,200.440002 296.017761,195.987518 
z"/>
<path fill="#A4AEC2" opacity="1.000000" stroke="none" 
	d="
M354.979675,241.894287 
	C350.787872,240.579376 346.596100,239.264465 342.290894,237.338318 
	C343.128357,236.161606 344.041656,235.190674 345.036377,235.098526 
	C350.293060,234.611588 355.570007,234.341461 360.840454,234.004852 
	C365.777496,233.689545 370.712616,233.322464 375.654419,233.118942 
	C376.925629,233.066589 378.222321,233.525940 379.500977,233.781921 
	C383.165222,234.515427 386.911682,236.149567 390.468903,235.805893 
	C396.118896,235.260056 401.641663,233.397888 407.190979,232.454987 
	C407.246368,233.280060 407.328979,233.742706 407.411621,234.205353 
	C406.834198,234.746811 406.256775,235.288284 405.016266,235.968262 
	C402.519623,236.755676 400.715454,237.848785 398.847107,237.972549 
	C392.505615,238.392548 386.141571,238.475937 379.785797,238.676376 
	C374.291351,238.849655 368.769806,238.739349 363.312683,239.281860 
	C360.476471,239.563843 357.753693,240.986771 354.979675,241.894287 
z"/>
<path fill="#E9EDF2" opacity="1.000000" stroke="none" 
	d="
M487.998291,192.993530 
	C491.029297,192.381165 494.060303,191.768814 497.838928,191.048019 
	C501.731476,189.942703 504.876495,188.945831 508.407959,187.904770 
	C510.859741,187.578506 512.924988,187.296417 514.999756,187.276276 
	C515.025391,187.712143 515.041687,187.886108 515.058044,188.060089 
	C515.058044,188.060089 515.000000,188.000000 514.740417,188.021393 
	C513.989563,188.295639 513.498230,188.548492 513.006958,188.801361 
	C513.006958,188.801361 512.546265,188.957047 512.085815,189.052704 
	C511.344147,189.292923 511.136505,189.508453 511.002502,189.794922 
	C511.002502,189.794922 510.537659,189.951889 510.008575,189.988098 
	C508.990204,190.279465 508.500916,190.534622 508.011627,190.789764 
	C508.011627,190.789764 507.539856,190.947449 506.966461,190.974716 
	C505.597382,191.267517 504.801666,191.533051 504.005981,191.798569 
	C504.005981,191.798569 503.545990,191.954910 503.015991,191.991852 
	C501.991608,192.287613 501.497223,192.546448 501.002838,192.805267 
	C501.002838,192.805267 500.552246,192.963287 500.025269,192.998688 
	C499.000488,193.289459 498.502716,193.544815 498.004913,193.800171 
	C498.004913,193.800171 497.585327,193.967331 497.149414,194.151978 
	C496.418030,194.523453 496.231720,194.787354 496.154633,195.128311 
	C496.154633,195.128311 496.062500,195.079437 495.671478,195.090012 
	C491.280090,196.205765 486.332123,195.078171 483.918671,199.922546 
	C476.360443,202.035965 468.689392,203.821259 461.280579,206.369156 
	C455.603119,208.321686 450.299652,211.339325 444.740601,213.670364 
	C442.703827,214.524414 440.410248,214.766006 437.690277,215.459564 
	C434.799652,215.416794 432.452545,215.201462 429.935059,214.707245 
	C428.856781,213.908905 427.948944,213.389435 427.033752,212.614502 
	C427.017883,212.188904 427.009399,212.018738 427.000885,211.848572 
	C427.396484,211.838608 427.792114,211.828644 428.905396,211.882843 
	C430.276520,211.854248 430.955109,211.844910 431.579742,211.656601 
	C449.328247,206.306229 467.080231,200.966736 484.795715,195.508820 
	C486.006592,195.135773 486.937286,193.853165 487.998291,192.993530 
z"/>
<path fill="#464D4B" opacity="1.000000" stroke="none" 
	d="
M281.869049,269.979065 
	C281.927307,272.042114 282.500122,274.254517 281.952301,276.141602 
	C279.883728,283.267273 275.435394,288.013855 267.039917,288.609741 
	C260.465912,288.552002 256.405304,285.331573 252.839600,280.670166 
	C251.852753,278.218292 250.972763,276.099121 250.125427,273.583191 
	C250.331085,271.110352 250.504074,269.034210 250.793121,266.613403 
	C253.309204,263.322052 255.709229,260.375366 258.060181,257.917175 
	C257.997803,259.060059 257.984528,259.714478 257.946716,260.668671 
	C256.982544,262.331787 256.042938,263.695099 254.997162,265.448730 
	C251.920731,275.635254 256.214783,282.311646 266.236359,283.342926 
	C272.124847,283.768494 277.379669,280.057739 278.426453,274.780151 
	C278.575470,274.028870 276.885986,272.912964 276.039917,271.967346 
	C276.032379,271.968903 276.039001,271.960938 276.049377,271.543579 
	C275.451752,267.964966 274.843750,264.803650 274.597321,261.667694 
	C277.262268,264.455048 279.565643,267.217041 281.869049,269.979065 
z"/>
<path fill="#E18083" opacity="1.000000" stroke="none" 
	d="
M307.140137,206.102432 
	C305.684174,198.755936 310.003815,194.121170 315.037537,189.451324 
	C321.201752,188.125168 327.158295,187.071838 333.508850,186.095825 
	C331.982452,187.544815 330.103882,188.980057 328.133575,190.275833 
	C323.021454,193.637863 319.531830,198.021484 318.462158,204.661255 
	C314.335815,205.356247 310.737976,205.729340 307.140137,206.102432 
z"/>
<path fill="#909AB4" opacity="1.000000" stroke="none" 
	d="
M355.344391,242.057373 
	C357.753693,240.986771 360.476471,239.563843 363.312683,239.281860 
	C368.769806,238.739349 374.291351,238.849655 379.785797,238.676376 
	C386.141571,238.475937 392.505615,238.392548 398.847107,237.972549 
	C400.715454,237.848785 402.519623,236.755676 404.738098,236.081726 
	C402.972473,238.606186 400.821899,241.155701 398.337891,243.738007 
	C396.730194,243.374542 395.377869,242.475616 394.193481,242.659286 
	C381.329163,244.654419 368.505127,245.331268 355.344391,242.057373 
z"/>
<path fill="#909AB4" opacity="1.000000" stroke="none" 
	d="
M251.100693,204.018402 
	C250.055862,204.001068 249.011017,203.983734 247.572769,203.939926 
	C245.049072,194.463577 242.991760,184.996445 240.762802,175.569901 
	C239.282593,169.309830 237.556946,163.107788 236.204193,156.385773 
	C236.983505,156.253021 237.818695,156.515198 237.966492,156.990952 
	C239.372742,161.517227 240.314133,166.220398 242.080460,170.593491 
	C243.964691,175.258469 246.596725,179.621368 248.925690,184.426819 
	C248.993942,185.152664 249.038788,185.567856 249.058197,186.377319 
	C251.007996,191.493393 252.983246,196.215179 254.673157,201.058533 
	C253.867661,201.491547 253.347534,201.802994 252.695221,202.283859 
	C252.426575,202.721497 252.221710,202.918716 251.968369,203.002411 
	C251.988312,202.959885 252.077621,202.988998 251.789795,203.054474 
	C251.339111,203.438431 251.176270,203.756912 251.020432,204.038483 
	C251.027451,204.001556 251.100693,204.018387 251.100693,204.018402 
z"/>
<path fill="#6E7C9C" opacity="1.000000" stroke="none" 
	d="
M252.946457,281.002808 
	C256.405304,285.331573 260.465912,288.552002 266.649597,288.588837 
	C255.019165,293.254211 244.826981,289.463898 235.688583,281.975555 
	C231.454803,278.506226 234.240585,273.906250 235.345413,269.626404 
	C235.710480,274.846191 237.360443,279.629059 242.800705,281.214325 
	C245.899002,282.117157 249.546356,281.135742 252.946457,281.002808 
z"/>
<path fill="#B6C1D0" opacity="1.000000" stroke="none" 
	d="
M214.069763,247.342560 
	C206.107605,248.567642 198.172287,250.019135 190.177261,250.967010 
	C176.743698,252.559692 163.266068,253.776917 149.819000,255.261124 
	C142.451706,256.074280 135.109024,257.110657 127.332092,258.128296 
	C126.212128,258.199554 125.515327,258.188904 124.060059,258.134277 
	C122.200378,258.088104 121.099174,258.085876 119.645370,258.056030 
	C118.592194,258.087006 117.891609,258.145630 117.117760,258.126251 
	C117.044495,258.048218 116.898109,257.892059 116.898109,257.892059 
	C123.243332,256.920898 129.578217,255.874893 135.936203,254.996033 
	C145.437698,253.682663 154.953781,252.473969 164.466934,251.246017 
	C170.282806,250.495300 176.094894,249.697235 181.926193,249.088058 
	C192.311752,248.003113 202.710571,247.045273 213.558319,246.400177 
	C214.031754,246.958237 214.050751,247.150406 214.069763,247.342560 
z"/>
<path fill="#C9D2DC" opacity="1.000000" stroke="none" 
	d="
M237.614319,214.117188 
	C238.058899,215.517029 238.131332,217.086227 238.193130,218.425171 
	C240.694458,218.425171 242.875931,218.425171 244.676758,218.906448 
	C234.231705,220.637589 224.167267,221.887451 213.664993,223.104248 
	C198.818268,224.404343 184.407120,225.714447 170.007141,227.137665 
	C169.275818,227.209930 168.640747,228.256134 167.960846,228.848862 
	C163.667404,229.206406 159.373962,229.563934 155.080521,229.921478 
	C155.031891,229.187805 154.983261,228.454117 154.934631,227.720444 
	C168.492416,226.146133 182.054581,224.608536 195.606750,222.987274 
	C209.330887,221.345444 223.045135,219.620895 236.791977,217.929092 
	C236.964355,216.534378 237.103271,215.410461 237.614319,214.117188 
z"/>
<path fill="#B6C1D0" opacity="1.000000" stroke="none" 
	d="
M248.902313,184.116150 
	C246.596725,179.621368 243.964691,175.258469 242.080460,170.593491 
	C240.314133,166.220398 239.372742,161.517227 237.966492,156.990952 
	C237.818695,156.515198 236.983505,156.253021 236.162079,155.986115 
	C233.565582,147.036072 231.274216,137.991669 228.975418,128.236008 
	C228.683105,127.030319 228.398224,126.535896 228.113358,126.041473 
	C228.056335,125.602798 227.999329,125.164131 227.902222,124.393875 
	C228.813522,125.216202 230.203552,126.222595 230.648849,127.546707 
	C235.431961,141.768982 240.065948,156.041382 244.922485,171.010590 
	C246.370224,175.852798 247.636261,179.984467 248.902313,184.116150 
z"/>
<path fill="#6E7C9C" opacity="1.000000" stroke="none" 
	d="
M433.090729,249.909073 
	C436.140717,251.263290 439.190735,252.617493 442.612915,253.982544 
	C435.225952,257.847198 427.906921,256.008057 420.792816,252.184387 
	C419.227142,251.342880 417.902130,250.065598 416.380981,249.127319 
	C409.903046,245.131638 408.953949,240.666672 413.652161,234.484131 
	C414.080200,236.428848 414.137726,238.136642 414.166138,240.211548 
	C415.525513,244.972992 418.093201,247.922012 423.412170,247.900864 
	C424.152466,247.919128 424.575592,247.924301 425.201050,248.219604 
	C427.965820,248.976166 430.528290,249.442627 433.090729,249.909073 
z"/>
<path fill="#B6C1D0" opacity="1.000000" stroke="none" 
	d="
M252.839600,280.670166 
	C249.546356,281.135742 245.899002,282.117157 242.800705,281.214325 
	C237.360443,279.629059 235.710480,274.846191 235.421005,269.223877 
	C235.161835,267.516846 235.181061,266.079254 235.474213,264.316711 
	C236.841583,264.008728 237.935028,264.025696 238.999207,264.390991 
	C238.772705,265.987488 238.575455,267.235657 238.378189,268.483795 
	C238.923706,268.329254 239.469238,268.174713 240.350708,268.067688 
	C243.822021,270.070160 246.957397,272.025055 250.092773,273.979919 
	C250.972763,276.099121 251.852753,278.218292 252.839600,280.670166 
z"/>
<path fill="#EEF4F8" opacity="1.000000" stroke="none" 
	d="
M431.279175,229.797745 
	C430.532562,230.345856 429.785950,230.893967 428.600403,231.671555 
	C427.118744,230.992844 426.185455,229.877975 424.995453,229.248016 
	C424.181915,228.817337 423.010437,229.062775 421.695129,229.158386 
	C420.576324,230.820999 419.761322,232.331161 418.642303,233.998749 
	C414.212585,235.496170 417.001465,231.796799 416.112793,230.596252 
	C420.842926,223.986771 427.825989,222.027618 435.138306,219.949173 
	C436.355682,219.539856 437.237915,219.239182 438.120178,218.938507 
	C439.503784,219.235641 440.887360,219.532776 442.394653,220.262421 
	C441.352997,221.422089 440.187622,222.149261 438.669037,222.903351 
	C436.566498,224.622971 434.817139,226.315643 432.884216,228.289444 
	C432.226807,228.979630 431.752991,229.388687 431.279175,229.797745 
z"/>
<path fill="#909AB4" opacity="1.000000" stroke="none" 
	d="
M281.834381,269.608429 
	C279.565643,267.217041 277.262268,264.455048 274.366821,261.413086 
	C269.603638,256.706665 263.917572,256.431671 257.971252,260.368896 
	C257.984528,259.714478 257.997803,259.060059 258.235443,257.656067 
	C260.944305,255.932587 263.428802,254.958649 266.354431,254.001984 
	C269.882690,253.311096 272.969879,252.602921 276.297424,251.999725 
	C276.688904,252.408829 276.839966,252.712967 277.042053,253.394928 
	C278.089264,256.849609 279.085388,259.926514 280.081512,263.003387 
	C280.654266,265.081512 281.226990,267.159668 281.834381,269.608429 
z"/>
<path fill="#464D4B" opacity="1.000000" stroke="none" 
	d="
M280.380249,262.908264 
	C279.085388,259.926514 278.089264,256.849609 277.464844,253.377533 
	C285.199158,252.205643 292.561768,251.428940 300.318848,250.741043 
	C303.449341,250.600403 306.185364,250.370941 308.824036,250.371399 
	C308.461945,251.019501 308.197174,251.437714 307.573853,251.922455 
	C305.826508,252.408997 304.437775,252.829025 302.660889,253.182510 
	C300.459381,253.357422 298.646118,253.598862 296.832825,253.840302 
	C292.250916,254.446854 286.457703,251.702057 284.038788,258.824341 
	C282.882324,260.407043 281.780670,261.610107 280.380249,262.908264 
z"/>
<path fill="#B6C1D0" opacity="1.000000" stroke="none" 
	d="
M415.958160,230.890366 
	C417.001465,231.796799 414.212585,235.496170 418.775024,234.333282 
	C423.011902,241.074677 424.401031,241.728424 428.695038,238.973480 
	C429.112701,240.727478 429.530365,242.481461 429.730865,244.743439 
	C428.008728,246.144104 426.503754,247.036789 424.998749,247.929474 
	C424.575592,247.924301 424.152466,247.919128 423.327850,247.575378 
	C420.016022,244.772659 417.105652,242.308548 414.195251,239.844421 
	C414.137726,238.136642 414.080200,236.428848 413.976440,234.293869 
	C413.938141,233.472733 413.946106,233.078796 413.934021,232.108536 
	C413.942444,231.339966 413.970886,231.147736 414.323883,230.913818 
	C415.085022,230.878204 415.521576,230.884277 415.958160,230.890366 
z"/>
<path fill="#D9DFE8" opacity="1.000000" stroke="none" 
	d="
M119.997963,258.083679 
	C121.099174,258.085876 122.200378,258.088104 123.711884,258.170532 
	C123.399963,259.158020 122.760780,260.770782 121.943115,260.867035 
	C109.279480,262.357361 96.592697,263.650940 83.539955,264.598145 
	C84.333855,263.804901 85.470329,263.234985 86.669113,263.030670 
	C92.780342,261.988953 98.907677,261.041779 105.311920,260.030823 
	C106.070244,259.727814 106.546028,259.455536 107.021812,259.183289 
	C107.021812,259.183289 107.463432,259.053253 108.036194,259.033112 
	C109.073753,259.037842 109.538567,259.062683 110.195992,259.319824 
	C111.260315,259.386444 112.132011,259.220734 113.403282,259.042725 
	C114.868797,259.019073 115.934753,259.007721 117.334351,259.001221 
	C118.444656,258.698608 119.221313,258.391113 119.997963,258.083679 
z"/>
<path fill="#C9D2DC" opacity="1.000000" stroke="none" 
	d="
M105.029381,260.061554 
	C98.907677,261.041779 92.780342,261.988953 86.669113,263.030670 
	C85.470329,263.234985 84.333855,263.804901 83.073044,264.583282 
	C82.232773,264.969604 81.488106,264.978821 80.119888,264.716797 
	C77.662498,264.649353 75.828651,264.853180 73.994812,265.057037 
	C73.561981,265.054596 73.129158,265.052155 71.943512,265.030426 
	C69.119774,265.661530 67.048859,266.311951 64.977943,266.962341 
	C64.232903,266.969971 63.487865,266.977570 62.135223,266.718933 
	C60.017063,266.650085 58.506504,266.847534 56.995949,267.044983 
	C56.140041,267.196289 55.284134,267.347595 53.808941,267.738129 
	C50.420414,267.634644 47.651173,267.291962 44.881927,266.949219 
	C50.512173,265.963501 56.116795,264.784821 61.778107,264.032990 
	C72.847420,262.563049 83.947365,261.322723 95.038040,260.016357 
	C96.017067,259.901001 97.021210,259.998993 98.885208,259.983551 
	C101.514275,260.000000 103.271828,260.030762 105.029381,260.061554 
z"/>
<path fill="#464D4B" opacity="1.000000" stroke="none" 
	d="
M239.028473,264.042664 
	C237.935028,264.025696 236.841583,264.008728 235.337128,263.998108 
	C234.151703,262.795563 233.377258,261.586609 232.042236,259.986664 
	C229.626465,258.326965 227.771271,257.058289 225.916061,255.789642 
	C229.914642,255.072067 233.913223,254.354492 238.548798,254.018036 
	C239.812103,256.339020 240.438416,258.278870 241.079468,260.540710 
	C240.405640,261.922668 239.717056,262.982666 239.028473,264.042664 
z"/>
<path fill="#A4AEC2" opacity="1.000000" stroke="none" 
	d="
M168.419647,228.934570 
	C168.640747,228.256134 169.275818,227.209930 170.007141,227.137665 
	C184.407120,225.714447 198.818268,224.404343 213.751160,223.328156 
	C214.504868,224.012924 214.734543,224.440720 214.964233,224.868530 
	C202.933990,226.242859 190.911728,227.694199 178.868301,228.941086 
	C175.570953,229.282471 172.210129,229.010681 168.419647,228.934570 
z"/>
<path fill="#D9DFE8" opacity="1.000000" stroke="none" 
	d="
M515.458557,188.029770 
	C515.041687,187.886108 515.025391,187.712143 515.222534,187.003723 
	C523.548828,183.652527 531.705078,180.952469 539.754639,177.965332 
	C543.294861,176.651566 546.618286,174.753403 550.040100,173.120590 
	C550.477478,173.113037 550.914795,173.105484 551.879822,173.335800 
	C553.202209,173.720795 553.996948,173.867905 554.791687,174.015015 
	C554.725159,174.309921 554.658569,174.604828 554.039795,174.985138 
	C553.339661,175.722305 553.191833,176.374084 553.043945,177.025848 
	C541.610657,180.569962 530.180908,184.125519 518.737366,187.636368 
	C517.826538,187.915787 516.820740,187.885696 515.458557,188.029770 
z"/>
<path fill="#909AB4" opacity="1.000000" stroke="none" 
	d="
M215.413345,224.933044 
	C214.734543,224.440720 214.504868,224.012924 214.189026,223.361206 
	C224.167267,221.887451 234.231705,220.637589 244.670624,219.268829 
	C244.655746,220.146042 244.540024,221.600906 243.814575,222.033676 
	C242.646545,222.730484 241.076157,222.752808 239.311386,223.157562 
	C231.252167,223.835876 223.557312,224.416702 215.413345,224.933044 
z"/>
<path fill="#C9D2DC" opacity="1.000000" stroke="none" 
	d="
M437.994934,218.662537 
	C437.237915,219.239182 436.355682,219.539856 434.690918,219.984299 
	C430.277740,220.018814 426.647034,219.909576 423.012390,219.387543 
	C422.582520,212.678070 427.432617,215.769104 430.105469,214.986130 
	C432.452545,215.201462 434.799652,215.416794 437.496521,215.794205 
	C437.854095,216.766373 437.861908,217.576462 437.994934,218.662537 
z"/>
<path fill="#464D4B" opacity="1.000000" stroke="none" 
	d="
M120.310539,265.127930 
	C123.992546,264.734161 127.674561,264.340363 131.702652,264.047546 
	C130.970337,265.734009 130.123383,267.560181 128.771011,268.860840 
	C124.363754,273.099609 122.203056,272.610962 120.088104,266.474304 
	C120.341705,265.595245 120.326126,265.361572 120.310539,265.127930 
z"/>
<path fill="#909AB4" opacity="1.000000" stroke="none" 
	d="
M439.022247,222.876419 
	C440.187622,222.149261 441.352997,221.422089 442.727844,220.423767 
	C448.024078,220.578186 453.138275,220.944458 456.033569,226.586060 
	C455.054321,226.898636 454.036102,226.817276 452.415924,226.398941 
	C449.518341,225.364059 447.243927,224.582428 444.920532,223.994125 
	C442.984222,223.503876 440.990540,223.240356 439.022247,222.876419 
z"/>
<path fill="#A4AEC2" opacity="1.000000" stroke="none" 
	d="
M237.931274,245.059158 
	C236.374161,244.974106 234.817032,244.889038 232.860352,244.552734 
	C238.098557,243.217896 243.733826,242.120911 249.376236,241.062027 
	C250.499557,240.851242 251.650269,240.786316 252.949951,240.242645 
	C254.288528,240.393005 255.465500,240.954834 256.523010,242.085449 
	C250.246109,243.455872 244.088699,244.257507 237.931274,245.059158 
z"/>
<path fill="#C9D2DC" opacity="1.000000" stroke="none" 
	d="
M44.059479,270.130432 
	C41.980663,271.614655 39.901852,273.098877 37.653221,274.704346 
	C35.880173,271.003143 33.915257,266.901459 31.299292,261.440704 
	C33.605415,262.451416 35.577427,262.693573 35.928085,263.578339 
	C37.355209,267.179260 40.112522,267.239014 43.294823,267.318848 
	C41.498108,267.990295 39.570415,268.342285 37.642727,268.694244 
	C37.687668,268.999420 37.732609,269.304596 37.777550,269.609741 
	C39.871525,269.783295 41.965504,269.956879 44.059479,270.130432 
z"/>
<path fill="#464D4B" opacity="1.000000" stroke="none" 
	d="
M181.899017,260.390381 
	C186.167618,259.339752 190.420593,258.680420 194.867203,258.411377 
	C191.959961,260.422302 188.957123,262.320343 185.691299,263.473999 
	C184.844681,263.773071 183.175003,261.742279 181.899017,260.390381 
z"/>
<path fill="#D9DFE8" opacity="1.000000" stroke="none" 
	d="
M381.891663,183.602356 
	C368.920898,181.559235 355.892822,184.122375 342.360992,184.976822 
	C347.518646,183.973862 353.185944,183.210556 358.740631,181.950790 
	C366.567932,180.175613 374.109802,181.783997 381.891663,183.602356 
z"/>
<path fill="#6E7C9C" opacity="1.000000" stroke="none" 
	d="
M483.971344,200.296417 
	C486.332123,195.078171 491.280090,196.205765 495.699341,195.134079 
	C493.315308,197.231812 490.610718,199.458603 487.644287,201.252380 
	C486.846558,201.734787 485.252533,200.900284 483.971344,200.296417 
z"/>
<path fill="#D9DFE8" opacity="1.000000" stroke="none" 
	d="
M44.504429,270.068665 
	C41.965504,269.956879 39.871525,269.783295 37.777550,269.609741 
	C37.732609,269.304596 37.687668,268.999420 37.642727,268.694244 
	C39.570415,268.342285 41.498108,267.990295 43.705975,267.400696 
	C43.986149,267.163116 44.425598,267.020935 44.653763,266.985107 
	C47.651173,267.291962 50.420414,267.634644 53.602028,267.995392 
	C54.007908,268.470978 54.001423,268.928497 53.968937,269.728333 
	C50.945084,270.049377 47.947231,270.028137 44.504429,270.068665 
z"/>
<path fill="#A4AEC2" opacity="1.000000" stroke="none" 
	d="
M214.522278,247.270142 
	C214.050751,247.150406 214.031754,246.958237 213.996246,246.476913 
	C219.625305,245.474640 225.270920,244.761536 231.236969,244.178986 
	C228.022034,245.225159 224.515961,246.288727 220.939514,246.996887 
	C219.013535,247.378235 216.966949,247.150589 214.522278,247.270142 
z"/>
<path fill="#6E7C9C" opacity="1.000000" stroke="none" 
	d="
M225.642090,255.796326 
	C227.771271,257.058289 229.626465,258.326965 231.779480,259.810364 
	C230.352814,261.140991 228.628342,262.256866 226.903870,263.372742 
	C226.190430,261.150696 225.477005,258.928650 224.812866,256.360107 
	C225.030807,255.943451 225.199478,255.873245 225.642090,255.796326 
z"/>
<path fill="#464D4B" opacity="1.000000" stroke="none" 
	d="
M413.999329,230.955505 
	C413.970886,231.147736 413.942444,231.339966 413.866394,231.819702 
	C411.915497,232.805603 410.012177,233.503983 407.760254,234.203857 
	C407.328979,233.742706 407.246368,233.280060 407.406189,232.248718 
	C408.100647,230.786163 408.552612,229.892303 409.359711,229.013397 
	C411.143005,229.670731 412.571167,230.313110 413.999329,230.955505 
z"/>
<path fill="#D9DFE8" opacity="1.000000" stroke="none" 
	d="
M106.449371,265.903259 
	C109.846054,265.374481 113.693359,264.927948 117.788345,264.760284 
	C114.324013,265.354614 110.612000,265.670044 106.449371,265.903259 
z"/>
<path fill="#D9DFE8" opacity="1.000000" stroke="none" 
	d="
M83.447678,267.921906 
	C86.716766,267.558990 90.437485,267.277252 94.618156,267.019958 
	C91.351845,267.363983 87.625572,267.683563 83.447678,267.921906 
z"/>
<path fill="#D9DFE8" opacity="1.000000" stroke="none" 
	d="
M63.437866,269.914551 
	C66.056602,269.552490 69.116600,269.273895 72.624268,269.017761 
	C70.007675,269.359467 66.943405,269.678711 63.437866,269.914551 
z"/>
<path fill="#B6C1D0" opacity="1.000000" stroke="none" 
	d="
M117.000702,258.996338 
	C115.934753,259.007721 114.868797,259.019073 113.028183,259.022308 
	C111.503471,259.038635 110.753426,259.063049 110.003372,259.087524 
	C109.538567,259.062683 109.073753,259.037842 108.261063,258.984009 
	C110.618683,258.625916 113.324181,258.296753 116.463898,257.929810 
	C116.898109,257.892059 117.044495,258.048218 117.050293,258.319061 
	C117.056099,258.589905 117.000702,258.996338 117.000702,258.996338 
z"/>
<path fill="#D9DFE8" opacity="1.000000" stroke="none" 
	d="
M397.815796,193.719940 
	C396.513702,193.004959 395.242462,191.963440 393.961639,190.568878 
	C395.250244,191.275009 396.548462,192.334198 397.815796,193.719940 
z"/>
<path fill="#D9DFE8" opacity="1.000000" stroke="none" 
	d="
M96.431656,266.908508 
	C98.729614,266.548157 101.461609,266.270630 104.632545,266.018738 
	C102.336227,266.359985 99.600960,266.675659 96.431656,266.908508 
z"/>
<path fill="#B6C1D0" opacity="1.000000" stroke="none" 
	d="
M105.311920,260.030823 
	C103.271828,260.030762 101.514275,260.000000 99.318665,259.951477 
	C101.309311,259.621704 103.737999,259.309692 106.594254,259.090485 
	C106.546028,259.455536 106.070244,259.727814 105.311920,260.030823 
z"/>
<path fill="#D9DFE8" opacity="1.000000" stroke="none" 
	d="
M74.423904,268.901123 
	C76.412003,268.544281 78.825272,268.273834 81.669106,268.024475 
	C79.682808,268.359528 77.265938,268.673553 74.423904,268.901123 
z"/>
<path fill="#909AB4" opacity="1.000000" stroke="none" 
	d="
M458.748352,229.598251 
	C457.876617,229.137390 456.891388,228.401978 455.961792,227.298279 
	C456.889893,227.727905 457.762390,228.525803 458.748352,229.598251 
z"/>
<path fill="#C9D2DC" opacity="1.000000" stroke="none" 
	d="
M554.765869,173.667236 
	C553.996948,173.867905 553.202209,173.720795 552.207764,173.344177 
	C552.335449,172.264633 552.662781,171.414581 553.016785,170.207092 
	C553.608948,171.006256 554.174438,172.162857 554.765869,173.667236 
z"/>
<path fill="#C9D2DC" opacity="1.000000" stroke="none" 
	d="
M553.346741,176.935257 
	C553.191833,176.374084 553.339661,175.722305 553.792603,175.055573 
	C553.948364,175.641983 553.798950,176.243317 553.346741,176.935257 
z"/>
<path fill="#D9DFE8" opacity="1.000000" stroke="none" 
	d="
M504.351257,191.882935 
	C504.801666,191.533051 505.597382,191.267517 506.722473,191.022919 
	C506.266754,191.351669 505.481628,191.659485 504.351257,191.882935 
z"/>
<path fill="#D9DFE8" opacity="1.000000" stroke="none" 
	d="
M228.058197,126.360329 
	C228.398224,126.535896 228.683105,127.030319 228.961731,127.827042 
	C228.638000,127.645950 228.320526,127.162567 228.058197,126.360329 
z"/>
<path fill="#D9DFE8" opacity="1.000000" stroke="none" 
	d="
M508.320923,190.875153 
	C508.500916,190.534622 508.990204,190.279465 509.767303,190.032394 
	C509.580139,190.347153 509.105164,190.653839 508.320923,190.875153 
z"/>
<path fill="#D9DFE8" opacity="1.000000" stroke="none" 
	d="
M498.317017,193.882477 
	C498.502716,193.544815 499.000488,193.289459 499.789764,193.038055 
	C499.597229,193.349625 499.113159,193.657211 498.317017,193.882477 
z"/>
<path fill="#D9DFE8" opacity="1.000000" stroke="none" 
	d="
M513.316040,188.884583 
	C513.498230,188.548492 513.989563,188.295639 514.769104,188.051178 
	C514.579956,188.362320 514.102478,188.665070 513.316040,188.884583 
z"/>
<path fill="#D9DFE8" opacity="1.000000" stroke="none" 
	d="
M384.962036,184.659180 
	C384.516510,184.849609 383.953369,184.736984 383.193329,184.407684 
	C383.612427,184.246033 384.228394,184.301056 384.962036,184.659180 
z"/>
<path fill="#D9DFE8" opacity="1.000000" stroke="none" 
	d="
M501.315399,192.885529 
	C501.497223,192.546448 501.991608,192.287613 502.776642,192.033264 
	C502.587524,192.347092 502.107727,192.656433 501.315399,192.885529 
z"/>
<path fill="#D9DFE8" opacity="1.000000" stroke="none" 
	d="
M53.994675,270.318512 
	C54.256454,270.075745 54.525623,270.212433 54.868271,270.654602 
	C54.686863,270.757843 54.373634,270.670471 53.994675,270.318512 
z"/>
<path fill="#D9DFE8" opacity="1.000000" stroke="none" 
	d="
M119.980583,265.073059 
	C120.326126,265.361572 120.341705,265.595245 120.170654,266.126465 
	C119.704727,266.152710 119.425446,265.881409 119.064301,265.330231 
	C119.205162,265.039612 119.427895,265.028870 119.980583,265.073059 
z"/>
<path fill="#EEF4F8" opacity="1.000000" stroke="none" 
	d="
M227.518372,111.322517 
	C227.395935,111.678993 227.103516,111.767128 226.356354,111.910278 
	C226.383881,111.661591 226.866135,111.357887 227.518372,111.322517 
z"/>
<path fill="#D9DFE8" opacity="1.000000" stroke="none" 
	d="
M400.967102,197.699554 
	C400.663361,197.909363 400.390594,197.735809 400.121765,197.196533 
	C400.334351,197.121658 400.625122,197.283447 400.967102,197.699554 
z"/>
<path fill="#D9DFE8" opacity="1.000000" stroke="none" 
	d="
M399.980591,196.700699 
	C399.762238,196.780746 399.484955,196.605667 399.124634,196.192474 
	C399.334930,196.118088 399.628296,196.281830 399.980591,196.700699 
z"/>
<path fill="#D9DFE8" opacity="1.000000" stroke="none" 
	d="
M398.982361,195.700104 
	C398.762726,195.776474 398.480652,195.595245 398.115845,195.169983 
	C398.328735,195.098129 398.624298,195.270309 398.982361,195.700104 
z"/>
<path fill="#D9DFE8" opacity="1.000000" stroke="none" 
	d="
M386.991028,185.703613 
	C386.733582,185.968765 386.457733,185.847382 386.112793,185.403793 
	C386.297760,185.286453 386.607391,185.364960 386.991028,185.703613 
z"/>
<path fill="#6E7C9C" opacity="1.000000" stroke="none" 
	d="
M496.417236,195.089020 
	C496.231720,194.787354 496.418030,194.523453 496.944916,194.247803 
	C497.010834,194.455887 496.845367,194.752808 496.417236,195.089020 
z"/>
<path fill="#D9DFE8" opacity="1.000000" stroke="none" 
	d="
M388.989441,186.703506 
	C388.730713,186.971527 388.455688,186.851654 388.112183,186.410217 
	C388.298462,186.290573 388.608307,186.366241 388.989441,186.703506 
z"/>
<path fill="#D9DFE8" opacity="1.000000" stroke="none" 
	d="
M390.965454,187.688690 
	C390.700592,187.958878 390.433716,187.841614 390.105103,187.406723 
	C390.294922,187.285263 390.601624,187.356003 390.965454,187.688690 
z"/>
<path fill="#D9DFE8" opacity="1.000000" stroke="none" 
	d="
M391.971863,188.702148 
	C391.670258,188.915100 391.396698,188.745499 391.125305,188.211594 
	C391.338348,188.133606 391.629181,188.291031 391.971863,188.702148 
z"/>
<path fill="#D9DFE8" opacity="1.000000" stroke="none" 
	d="
M392.997253,189.709991 
	C392.782928,189.793671 392.499481,189.623810 392.129700,189.214783 
	C392.338318,189.135880 392.633209,189.296173 392.997253,189.709991 
z"/>
<path fill="#D9DFE8" opacity="1.000000" stroke="none" 
	d="
M511.263062,189.854797 
	C511.136505,189.508453 511.344147,189.292923 511.846466,189.095276 
	C511.886261,189.333023 511.704956,189.623840 511.263062,189.854797 
z"/>
<path fill="#E9EDF2" opacity="1.000000" stroke="none" 
	d="
M354.418121,213.806396 
	C348.199799,214.248779 341.981506,214.691162 335.439514,215.156586 
	C335.201080,213.865280 334.892853,212.196030 334.584625,210.526764 
	C334.631195,214.916718 332.306122,216.432190 328.452057,215.845886 
	C324.667206,215.270096 327.223236,212.535065 326.991058,210.384216 
	C327.562103,209.440796 328.085693,208.412582 328.701080,208.354355 
	C337.822571,207.491196 346.956177,206.756607 356.463440,206.339310 
	C356.032623,209.060135 355.225372,211.433258 354.418121,213.806396 
z"/>
<path fill="#DE3136" opacity="1.000000" stroke="none" 
	d="
M307.088409,206.499359 
	C310.737976,205.729340 314.335815,205.356247 318.357361,205.047058 
	C318.824249,206.155090 318.867432,207.199203 318.926270,208.960083 
	C318.894897,209.903885 318.847870,210.130936 318.800812,210.358002 
	C316.322052,211.452316 313.843292,212.546600 310.818115,213.842590 
	C309.558899,213.999176 308.846100,213.954086 308.133301,213.908997 
	C307.767761,211.571426 307.402222,209.233856 307.088409,206.499359 
z"/>
<path fill="#2C2E2A" opacity="1.000000" stroke="none" 
	d="
M385.012695,200.643692 
	C385.807434,202.484314 386.384521,204.004120 387.182770,206.106293 
	C383.225189,206.728729 379.537994,207.308624 375.453003,207.469238 
	C375.386963,204.783371 375.718811,202.516815 376.050629,200.250244 
	C378.965454,200.274460 381.880249,200.298676 385.012695,200.643692 
z"/>
<path fill="#2C2E2A" opacity="1.000000" stroke="none" 
	d="
M368.422852,201.550751 
	C369.855804,208.712753 368.455505,211.058167 362.613953,211.622192 
	C362.302185,211.652313 361.860474,210.336563 361.231537,209.322510 
	C360.983826,208.997681 361.006409,209.076141 361.399597,209.046143 
	C362.220337,207.338715 362.647949,205.661285 363.033447,203.987671 
	C362.991333,203.991501 363.003052,204.075256 363.003052,204.075256 
	C364.693665,203.221405 366.384247,202.367538 368.422852,201.550751 
z"/>
<path fill="#2C2E2A" opacity="1.000000" stroke="none" 
	d="
M399.155762,201.733093 
	C396.909637,203.020767 394.375366,204.080048 391.414917,204.744415 
	C390.670959,202.282288 390.353180,200.215118 390.035400,198.147934 
	C394.825439,194.409775 396.648712,198.477692 399.155762,201.733093 
z"/>
<path fill="#464D4B" opacity="1.000000" stroke="none" 
	d="
M354.738159,213.695969 
	C355.225372,211.433258 356.032623,209.060135 356.857849,206.336914 
	C358.296234,203.854385 359.651031,201.563400 362.888855,203.809708 
	C363.003052,204.075256 362.991333,203.991501 362.676697,204.087372 
	C361.910187,205.814209 361.458313,207.445175 361.006409,209.076141 
	C361.006409,209.076141 360.983826,208.997681 361.018799,208.977402 
	C359.055237,210.499924 357.056702,212.042740 354.738159,213.695969 
z"/>
<path fill="#464D4B" opacity="1.000000" stroke="none" 
	d="
M375.697510,200.181427 
	C375.718811,202.516815 375.386963,204.783371 375.050446,207.431183 
	C368.277344,208.813354 371.866974,203.739334 371.487396,200.915436 
	C372.991852,200.467651 374.168152,200.290131 375.697510,200.181427 
z"/>
<path fill="#E9EDF2" opacity="1.000000" stroke="none" 
	d="
M318.890503,210.703217 
	C318.847870,210.130936 318.894897,209.903885 319.025665,209.339371 
	C320.584900,209.166153 322.060394,209.330383 323.773071,209.781128 
	C323.653625,213.241394 323.296967,216.415115 322.926514,220.020020 
	C321.601898,217.316925 320.291077,214.182678 318.890503,210.703217 
z"/>
<path fill="#464D4B" opacity="1.000000" stroke="none" 
	d="
M389.671265,198.084747 
	C390.353180,200.215118 390.670959,202.282288 391.013123,204.750916 
	C389.694733,203.868744 388.351929,202.585144 386.791626,201.089584 
	C387.485107,199.925629 388.396088,198.973602 389.671265,198.084747 
z"/>
<path fill="#DE3136" opacity="1.000000" stroke="none" 
	d="
M287.300476,215.723709 
	C285.275177,217.404495 283.485046,219.429977 280.263733,217.904739 
	C279.743469,217.658401 277.816589,219.636719 277.048126,220.896652 
	C276.432739,221.905624 276.588654,223.385071 275.703461,224.878052 
	C270.645172,225.412399 266.240448,226.226898 261.943909,225.839981 
	C259.531952,225.622772 257.298920,223.419022 254.868896,221.803604 
	C254.163895,220.340149 253.575256,219.183350 253.014313,217.621613 
	C253.276108,215.401550 253.510254,213.586456 254.217407,211.896210 
	C260.175507,211.636810 265.660583,211.252548 271.449158,211.055084 
	C275.864441,212.385223 279.976166,213.528595 284.406494,214.791412 
	C285.583557,215.181839 286.442017,215.452774 287.300476,215.723709 
z"/>
<path fill="#B6C1D0" opacity="1.000000" stroke="none" 
	d="
M237.953598,245.458801 
	C244.088699,244.257507 250.246109,243.455872 256.673889,242.391052 
	C258.346130,242.518799 259.801788,243.378876 261.141357,243.225403 
	C270.724030,242.127518 280.295349,240.907333 289.839294,239.513718 
	C291.750183,239.234695 293.528076,238.045044 296.047211,237.473099 
	C300.493134,238.450775 304.259186,239.230621 307.600525,240.011597 
	C304.729248,240.346985 302.278931,240.656052 299.836853,241.020309 
	C293.224670,242.006531 286.615997,243.016205 279.632355,244.003815 
	C278.512390,244.026123 277.765991,244.061188 276.574951,244.056076 
	C268.662506,244.466461 261.192108,244.881439 253.731750,245.432999 
	C253.114624,245.478638 252.565903,246.449753 251.594742,246.992432 
	C244.885178,247.924606 243.522659,249.568451 244.877502,254.587616 
	C243.189651,253.227676 241.743256,251.615662 240.296860,250.003647 
	C240.611374,249.664581 240.925873,249.325531 241.240372,248.986465 
	C240.426392,248.986465 239.612396,248.986465 238.798401,248.986465 
	C238.798401,248.986465 238.333221,249.150635 238.088348,249.112152 
	C237.887634,248.001938 237.931778,246.930191 237.953598,245.458801 
z"/>
<path fill="#EEF4F8" opacity="1.000000" stroke="none" 
	d="
M308.025208,240.010452 
	C304.259186,239.230621 300.493134,238.450775 296.412354,237.434143 
	C296.097595,237.197327 296.428711,236.958160 296.868591,236.903625 
	C297.631317,236.723572 297.859619,236.501022 297.993408,236.181473 
	C302.720978,234.472092 307.448578,232.762726 312.949402,231.035980 
	C317.491699,232.991684 321.260712,234.964767 325.135925,237.231125 
	C325.805084,238.381317 326.368042,239.238205 326.706055,240.328369 
	C324.894043,240.673431 323.299683,240.940872 321.721191,240.867523 
	C317.152435,240.655258 312.590088,240.305954 308.025208,240.010452 
z"/>
<path fill="#C9D2DC" opacity="1.000000" stroke="none" 
	d="
M254.985275,222.110275 
	C257.298920,223.419022 259.531952,225.622772 261.943909,225.839981 
	C266.240448,226.226898 270.645172,225.412399 275.392761,225.136963 
	C271.163544,227.952576 266.807037,231.412903 261.852020,233.309464 
	C257.344147,235.034897 253.184052,232.706161 250.590240,228.107086 
	C252.564377,226.048325 255.927719,225.718597 254.985275,222.110275 
z"/>
<path fill="#E9EDF2" opacity="1.000000" stroke="none" 
	d="
M287.695648,215.767365 
	C286.442017,215.452774 285.583557,215.181839 284.696533,214.574326 
	C286.417542,213.828629 288.178009,213.460464 289.914551,213.001907 
	C293.641815,212.017670 297.356812,210.986786 301.076813,209.975006 
	C302.689514,211.350052 304.302216,212.725113 305.917297,214.097473 
	C305.369263,216.523468 304.818939,218.952179 304.117249,221.734589 
	C298.674225,219.995880 293.382538,217.903458 287.695648,215.767365 
z"/>
<path fill="#A4AEC2" opacity="1.000000" stroke="none" 
	d="
M325.029724,236.937836 
	C321.260712,234.964767 317.491699,232.991684 313.322815,230.984802 
	C312.282623,229.908264 311.642273,228.865540 311.282288,227.481964 
	C314.036560,226.495148 316.510406,225.849152 318.984283,225.203156 
	C320.240051,225.723984 321.702637,225.989197 322.716187,226.809357 
	C327.407959,230.605789 331.975006,234.556381 336.762390,239.022995 
	C334.731384,238.681519 332.387543,237.999191 330.357300,236.790253 
	C328.390472,235.619110 326.737885,233.376678 325.029724,236.937836 
z"/>
<path fill="#F6F8FB" opacity="1.000000" stroke="none" 
	d="
M253.744385,211.771347 
	C253.510254,213.586456 253.276108,215.401550 252.611389,217.623810 
	C250.575256,218.018326 248.969742,218.005692 247.364212,217.993073 
	C247.255249,213.224518 247.456818,208.539536 251.016388,204.376984 
	C251.100693,204.018387 251.027451,204.001556 251.301666,203.982910 
	C251.743134,203.639191 251.910370,203.314087 252.077621,202.988998 
	C252.077621,202.988998 251.988312,202.959885 252.185776,202.921921 
	C252.675171,202.710449 252.823227,202.453949 252.827408,202.114441 
	C253.347534,201.802994 253.867661,201.491547 255.022278,201.079071 
	C256.755585,200.637344 257.854401,200.296631 258.953247,199.955917 
	C259.706512,199.975555 260.459808,199.995193 261.487549,200.346329 
	C258.028870,203.609146 253.935959,206.280441 253.744385,211.771347 
z"/>
<path fill="#D9DFE8" opacity="1.000000" stroke="none" 
	d="
M247.256729,218.367767 
	C248.969742,218.005692 250.575256,218.018326 252.583710,218.028748 
	C253.575256,219.183350 254.163895,220.340149 254.868896,221.803604 
	C255.927719,225.718597 252.564377,226.048325 250.515228,227.776489 
	C249.199783,224.882996 248.174515,221.812744 247.256729,218.367767 
z"/>
<path fill="#C9D2DC" opacity="1.000000" stroke="none" 
	d="
M318.845703,224.910492 
	C316.510406,225.849152 314.036560,226.495148 311.129791,227.208740 
	C309.554779,226.432236 308.412689,225.588150 307.105286,224.487015 
	C309.258118,223.706985 311.576172,223.183990 314.249695,222.426819 
	C315.342834,222.419022 316.080566,222.645401 316.818268,222.871765 
	C317.447906,223.453766 318.077515,224.035782 318.845703,224.910492 
z"/>
<path fill="#B6C1D0" opacity="1.000000" stroke="none" 
	d="
M297.738647,236.154785 
	C297.859619,236.501022 297.631317,236.723572 297.064026,236.844208 
	C297.040985,236.602249 297.262421,236.365173 297.738647,236.154785 
z"/>
<path fill="#B6C1D0" opacity="1.000000" stroke="none" 
	d="
M409.004578,228.998459 
	C408.552612,229.892303 408.100647,230.786163 407.433472,231.886276 
	C401.641663,233.397888 396.118896,235.260056 390.468903,235.805893 
	C386.911682,236.149567 383.165222,234.515427 379.500977,233.781921 
	C378.222321,233.525940 376.925629,233.066589 375.654419,233.118942 
	C370.712616,233.322464 365.777496,233.689545 360.840454,234.004852 
	C355.570007,234.341461 350.293060,234.611588 345.036377,235.098526 
	C344.041656,235.190674 343.128357,236.161606 342.018250,237.133652 
	C338.299866,235.252960 334.740753,232.965668 331.023712,230.376450 
	C341.885498,229.045639 352.905029,228.015167 363.925354,226.993088 
	C364.421295,226.947083 364.985504,227.125793 365.414703,226.949066 
	C371.674347,224.371933 377.111328,227.152130 382.679718,229.442459 
	C391.109589,232.909729 400.740570,229.837341 405.874451,222.308777 
	C406.725311,221.061020 408.036957,220.127472 409.473145,219.438171 
	C409.567596,221.643494 409.324524,223.459412 409.141663,225.644852 
	C409.136108,227.009064 409.070343,228.003769 409.004578,228.998459 
z"/>
<path fill="#EEF4F8" opacity="1.000000" stroke="none" 
	d="
M409.081482,225.275330 
	C409.324524,223.459412 409.567596,221.643494 409.827698,219.440521 
	C410.244568,218.339447 410.644440,217.625458 411.121948,216.624969 
	C411.603851,216.268326 412.008087,216.198151 412.960571,216.354919 
	C415.619141,216.413681 417.729462,216.245499 420.041382,216.328278 
	C420.819336,217.685822 421.395691,218.792404 421.651611,220.067459 
	C417.247955,221.915726 413.164734,223.595535 409.081482,225.275330 
z"/>
<path fill="#F6F8FB" opacity="1.000000" stroke="none" 
	d="
M300.918030,209.659973 
	C297.356812,210.986786 293.641815,212.017670 289.914551,213.001907 
	C288.178009,213.460464 286.417542,213.828629 284.377930,214.454865 
	C279.976166,213.528595 275.864441,212.385223 271.407562,210.639954 
	C269.860016,204.756790 273.016602,201.362106 276.268707,198.008789 
	C282.562408,197.337372 288.856110,196.665955 295.583801,195.991028 
	C297.598297,200.440002 299.178802,204.892487 300.918030,209.659973 
z"/>
<path fill="#E18083" opacity="1.000000" stroke="none" 
	d="
M275.990112,197.718750 
	C273.016602,201.362106 269.860016,204.756790 271.104065,210.453171 
	C265.660583,211.252548 260.175507,211.636810 254.217407,211.896210 
	C253.935959,206.280441 258.028870,203.609146 261.864044,200.360291 
	C261.966095,200.042755 262.088379,199.625748 262.093262,199.408936 
	C266.635925,198.604309 271.173737,198.016510 275.990112,197.718750 
z"/>
<path fill="#E9EDF2" opacity="1.000000" stroke="none" 
	d="
M261.947876,196.655029 
	C261.139313,196.572784 259.791809,196.323578 259.524078,195.647034 
	C254.607437,183.224380 249.819504,170.750793 245.012085,158.285004 
	C244.956100,158.139816 245.002151,157.955292 245.003754,157.392654 
	C246.017273,158.535065 247.318573,159.957260 247.990204,161.631958 
	C252.014587,171.666672 255.881393,181.764465 259.835815,191.827454 
	C260.434631,193.351257 261.215118,194.803696 261.947876,196.655029 
z"/>
<path fill="#E9EDF2" opacity="1.000000" stroke="none" 
	d="
M239.991547,141.609924 
	C238.674301,140.200806 236.944794,138.551773 236.132812,136.533615 
	C234.193130,131.712677 232.685928,126.717728 231.006805,121.394020 
	C231.743668,121.308182 232.931503,121.438652 233.142532,121.962555 
	C235.512985,127.847672 237.743439,133.789444 239.972656,139.730576 
	C240.134995,140.163193 239.995590,140.709015 239.991547,141.609924 
z"/>
<path fill="#E9EDF2" opacity="1.000000" stroke="none" 
	d="
M244.998230,155.603333 
	C243.336990,152.262543 241.677032,148.520020 240.013397,144.386246 
	C241.672989,147.730530 243.336258,151.466064 244.998230,155.603333 
z"/>
<path fill="#E9EDF2" opacity="1.000000" stroke="none" 
	d="
M230.945572,117.703812 
	C230.351929,117.559540 229.723068,117.094414 229.059189,116.309189 
	C229.652893,116.453720 230.281631,116.918335 230.945572,117.703812 
z"/>
<path fill="#2C2E2A" opacity="1.000000" stroke="none" 
	d="
M238.783112,249.383423 
	C239.612396,248.986465 240.426392,248.986465 241.240372,248.986465 
	C240.925873,249.325531 240.611374,249.664581 240.296860,250.003647 
	C241.743256,251.615662 243.189651,253.227676 245.189041,254.510239 
	C246.155228,254.068878 246.568405,253.956970 247.234970,253.992889 
	C247.979431,254.454193 248.470505,254.767685 248.986023,255.322906 
	C249.010452,255.564667 249.152863,256.029297 248.992615,256.349060 
	C246.243164,257.852142 243.653961,259.035431 241.064728,260.218719 
	C240.438416,258.278870 239.812103,256.339020 238.991364,254.058243 
	C238.787216,252.404984 238.777527,251.092682 238.783112,249.383423 
z"/>
<path fill="#D9DFE8" opacity="1.000000" stroke="none" 
	d="
M65.403198,266.978271 
	C67.048859,266.311951 69.119774,265.661530 71.618881,265.030334 
	C69.974197,265.697754 67.901329,266.345978 65.403198,266.978271 
z"/>
<path fill="#D9DFE8" opacity="1.000000" stroke="none" 
	d="
M74.251404,265.317505 
	C75.828651,264.853180 77.662498,264.649353 79.747223,264.714172 
	C78.168076,265.181213 76.338043,265.379578 74.251404,265.317505 
z"/>
<path fill="#D9DFE8" opacity="1.000000" stroke="none" 
	d="
M57.235168,267.302368 
	C58.506504,266.847534 60.017063,266.650085 61.762684,266.715790 
	C60.489960,267.172546 58.982174,267.366150 57.235168,267.302368 
z"/>
<path fill="#C9D2DC" opacity="1.000000" stroke="none" 
	d="
M308.921417,250.141479 
	C306.185364,250.370941 303.449341,250.600403 300.380127,250.395966 
	C301.784576,248.979340 303.583252,248.088242 305.240387,246.984680 
	C306.549835,246.112640 307.685425,244.979507 309.287323,244.010712 
	C311.450012,244.376450 313.223663,244.693802 315.045197,245.382416 
	C316.208069,246.496857 317.535706,248.064926 318.401520,247.841721 
	C322.344330,246.825211 326.157288,245.304947 330.298218,244.106628 
	C331.384888,245.166351 332.190338,246.085281 332.995758,247.004211 
	C332.995758,247.004211 333.292511,247.381470 333.035583,247.743469 
	C328.519562,250.421616 324.260498,252.737747 319.668457,255.040009 
	C318.891815,255.002151 318.448120,254.978165 317.855652,254.631683 
	C316.142151,250.045120 313.193237,248.698975 308.921417,250.141479 
z"/>
<path fill="#909AB4" opacity="1.000000" stroke="none" 
	d="
M333.049805,246.639511 
	C332.190338,246.085281 331.384888,245.166351 330.173309,243.847321 
	C329.243347,242.895508 328.719543,242.343765 328.117767,241.524261 
	C327.670197,240.869354 327.300568,240.482239 326.930969,240.095093 
	C326.368042,239.238205 325.805084,238.381317 325.135925,237.231125 
	C326.737885,233.376678 328.390472,235.619110 330.357300,236.790253 
	C332.387543,237.999191 334.731384,238.681519 336.999084,239.272644 
	C337.603607,239.133987 338.147034,239.316940 339.015381,239.991241 
	C339.701538,240.639191 340.062866,240.795792 340.424164,240.952393 
	C345.056946,242.651276 349.689758,244.350143 354.892395,246.332733 
	C355.989471,246.697800 356.516724,246.779160 357.043976,246.860519 
	C357.217438,246.882782 357.390900,246.905029 357.814758,247.009201 
	C358.906769,247.719147 359.748383,248.347168 361.169281,249.407440 
	C353.259094,251.011307 346.811035,249.373611 340.853271,245.302017 
	C337.981842,243.339691 335.349762,243.264267 333.049805,246.639511 
z"/>
<path fill="#A4AEC2" opacity="1.000000" stroke="none" 
	d="
M318.004456,254.954178 
	C318.448120,254.978165 318.891815,255.002151 319.929077,255.304352 
	C322.022705,255.729919 323.522675,255.877289 325.016876,256.364807 
	C325.026978,257.159271 325.042877,257.613586 325.058807,258.067932 
	C320.004547,258.708923 314.950287,259.349884 309.368042,259.613342 
	C306.906891,257.242981 301.308838,258.795166 303.049072,253.249054 
	C304.437775,252.829025 305.826508,252.408997 307.608704,252.319275 
	C310.459534,257.222870 314.126160,256.547913 318.004456,254.954178 
z"/>
<path fill="#B6C1D0" opacity="1.000000" stroke="none" 
	d="
M325.022675,256.024658 
	C323.522675,255.877289 322.022705,255.729919 320.262054,255.318207 
	C324.260498,252.737747 328.519562,250.421616 333.144043,247.957550 
	C334.043243,248.300385 334.577026,248.791168 335.119812,249.944611 
	C333.632477,255.906006 328.661163,254.722153 325.022675,256.024658 
z"/>
<path fill="#909AB4" opacity="1.000000" stroke="none" 
	d="
M302.660889,253.182526 
	C301.308838,258.795166 306.906891,257.242981 308.926514,259.605652 
	C304.146851,260.097656 299.113586,260.596985 296.890045,254.234039 
	C298.646118,253.598862 300.459381,253.357422 302.660889,253.182526 
z"/>
<path fill="#909AB4" opacity="1.000000" stroke="none" 
	d="
M325.016876,256.364807 
	C328.661163,254.722153 333.632477,255.906006 335.224060,250.213776 
	C336.378265,250.482880 337.437195,251.145462 338.753967,251.969376 
	C334.951721,255.791412 331.349121,258.859131 325.478577,258.064850 
	C325.042877,257.613586 325.026978,257.159271 325.016876,256.364807 
z"/>
<path fill="#909AB4" opacity="1.000000" stroke="none" 
	d="
M367.524017,249.540222 
	C367.476349,249.566498 367.571686,249.513947 367.524017,249.540222 
z"/>
<path fill="#D9DFE8" opacity="1.000000" stroke="none" 
	d="
M487.583893,192.978790 
	C486.937286,193.853165 486.006592,195.135773 484.795715,195.508820 
	C467.080231,200.966736 449.328247,206.306229 431.579742,211.656601 
	C430.955109,211.844910 430.276520,211.854248 429.201843,211.899536 
	C429.772949,211.115204 430.659454,210.046219 431.773499,209.691101 
	C449.072052,204.176971 466.396332,198.743301 483.730255,193.340912 
	C484.810852,193.004135 486.020111,193.080093 487.583893,192.978790 
z"/>
<path fill="#C9D2DC" opacity="1.000000" stroke="none" 
	d="
M549.640747,173.086502 
	C546.618286,174.753403 543.294861,176.651566 539.754639,177.965332 
	C531.705078,180.952469 523.548828,183.652527 515.213135,186.741806 
	C512.924988,187.296417 510.859741,187.578506 508.291321,187.665344 
	C507.520569,187.010284 507.252991,186.550446 506.985413,186.090622 
	C521.070740,181.744553 535.156006,177.398483 549.640747,173.086502 
z"/>
<path fill="#D9DFE8" opacity="1.000000" stroke="none" 
	d="
M419.839783,216.077301 
	C417.729462,216.245499 415.619141,216.413681 413.269775,216.354950 
	C417.526947,214.555801 422.023132,212.983582 426.760101,211.629959 
	C427.009399,212.018738 427.017883,212.188904 426.685974,212.800201 
	C424.177002,214.186661 422.008392,215.131989 419.839783,216.077301 
z"/>
<path fill="#D9DFE8" opacity="1.000000" stroke="none" 
	d="
M506.618286,186.127426 
	C507.252991,186.550446 507.520569,187.010284 507.904816,187.709534 
	C504.876495,188.945831 501.731476,189.942703 498.169891,190.886536 
	C500.585907,189.277069 503.418549,187.720642 506.618286,186.127426 
z"/>
<path fill="#A4AEC2" opacity="1.000000" stroke="none" 
	d="
M316.753784,222.560852 
	C316.080566,222.645401 315.342834,222.419022 314.333740,222.064865 
	C313.029236,220.506241 311.996094,219.075394 311.003937,217.298843 
	C312.926392,218.718719 314.807861,220.484314 316.753784,222.560852 
z"/>
<path fill="#A4AEC2" opacity="1.000000" stroke="none" 
	d="
M308.108215,214.282104 
	C308.846100,213.954086 309.558899,213.999176 310.617065,214.146454 
	C311.033203,214.928391 311.103943,215.608154 311.110413,216.625214 
	C310.058502,216.193420 309.070801,215.424316 308.108215,214.282104 
z"/>
<path fill="#6E7C9C" opacity="1.000000" stroke="none" 
	d="
M356.868591,246.648590 
	C356.516724,246.779160 355.989471,246.697800 355.286743,246.411346 
	C355.638550,246.283066 356.165894,246.359863 356.868591,246.648590 
z"/>
<path fill="#A4AEC2" opacity="1.000000" stroke="none" 
	d="
M340.241974,240.718842 
	C340.062866,240.795792 339.701538,240.639191 339.173798,240.236847 
	C339.358154,240.155838 339.708984,240.320572 340.241974,240.718842 
z"/>
<path fill="#B6C1D0" opacity="1.000000" stroke="none" 
	d="
M258.932037,199.613892 
	C257.854401,200.296631 256.755585,200.637344 255.307632,200.957520 
	C252.983246,196.215179 251.007996,191.493393 249.327560,186.519806 
	C250.411774,187.178879 251.201141,188.089737 251.990524,189.000610 
	C254.297302,192.424362 256.604065,195.848129 258.932037,199.613892 
z"/>
<path fill="#C9D2DC" opacity="1.000000" stroke="none" 
	d="
M252.258972,188.777740 
	C251.201141,188.089737 250.411774,187.178879 249.353027,186.125519 
	C249.038788,185.567856 248.993942,185.152664 248.925690,184.426819 
	C247.636261,179.984467 246.370224,175.852798 245.082062,171.341888 
	C246.124985,172.443649 247.557129,173.785065 248.183701,175.432785 
	C249.819778,179.735260 251.103302,184.171799 252.258972,188.777740 
z"/>
<path fill="#1B1D1A" opacity="1.000000" stroke="none" 
	d="
M431.670288,229.969788 
	C431.752991,229.388687 432.226807,228.979630 433.263245,228.309845 
	C434.407959,228.290314 435.173523,228.372757 435.542084,228.798691 
	C437.796539,231.404083 439.472321,235.316620 442.279510,236.432480 
	C445.760559,237.816254 450.153809,236.905289 454.153015,236.985580 
	C454.132233,237.419495 454.111450,237.853409 453.922119,238.930786 
	C451.160797,242.457047 448.568024,245.339874 445.975220,248.222687 
	C435.235626,247.897522 431.276550,243.236023 432.760376,232.801056 
	C432.879303,231.964691 432.310608,231.030533 431.670288,229.969788 
z"/>
<path fill="#2C2E2A" opacity="1.000000" stroke="none" 
	d="
M454.395294,236.744171 
	C450.153809,236.905289 445.760559,237.816254 442.279510,236.432480 
	C439.472321,235.316620 437.796539,231.404083 435.542084,228.798691 
	C435.173523,228.372757 434.407959,228.290314 433.446838,228.028717 
	C434.817139,226.315643 436.566498,224.622971 438.669037,222.903351 
	C440.990540,223.240356 442.984222,223.503876 444.920532,223.994125 
	C447.243927,224.582428 449.518341,225.364059 452.029358,226.365967 
	C453.042358,229.947556 453.839966,233.225143 454.395294,236.744171 
M444.579773,234.518143 
	C444.579773,234.518143 444.477295,234.578201 444.579773,234.518143 
z"/>
<path fill="#C9D2DC" opacity="1.000000" stroke="none" 
	d="
M428.742310,238.575592 
	C424.401031,241.728424 423.011902,241.074677 419.079041,234.175873 
	C419.761322,232.331161 420.576324,230.820999 421.729218,229.517151 
	C423.097412,232.993332 424.720642,235.509995 428.743164,234.978531 
	C428.758636,236.044922 428.774109,237.111328 428.742310,238.575592 
z"/>
<path fill="#2C2E2A" opacity="1.000000" stroke="none" 
	d="
M446.230042,248.445984 
	C448.568024,245.339874 451.160797,242.457047 453.911957,239.256424 
	C457.329865,240.351074 456.500397,243.017014 454.804901,244.390549 
	C452.432861,246.312180 449.295044,247.288528 446.230042,248.445984 
z"/>
<path fill="#909AB4" opacity="1.000000" stroke="none" 
	d="
M425.201050,248.219589 
	C426.503754,247.036789 428.008728,246.144104 429.829285,245.116302 
	C431.080627,246.409012 432.016418,247.836838 433.021484,249.586884 
	C430.528290,249.442627 427.965820,248.976166 425.201050,248.219589 
z"/>
<path fill="#D9DFE8" opacity="1.000000" stroke="none" 
	d="
M428.834595,234.609726 
	C424.720642,235.509995 423.097412,232.993332 422.033020,229.364700 
	C423.010437,229.062775 424.181915,228.817337 424.995453,229.248016 
	C426.185455,229.877975 427.118744,230.992844 428.498169,231.939331 
	C428.865265,232.732056 428.895660,233.486481 428.834595,234.609726 
z"/>
<path fill="#B6C1D0" opacity="1.000000" stroke="none" 
	d="
M420.041382,216.328278 
	C422.008392,215.131989 424.177002,214.186661 426.693359,213.055664 
	C427.948944,213.389435 428.856781,213.908905 429.935059,214.707245 
	C427.432617,215.769104 422.582520,212.678070 422.756927,219.471313 
	C422.327637,219.944901 422.149841,219.921951 421.972076,219.898987 
	C421.395691,218.792404 420.819336,217.685822 420.041382,216.328278 
z"/>
<path fill="#2C2E2A" opacity="1.000000" stroke="none" 
	d="
M257.946716,260.668671 
	C263.917572,256.431671 269.603638,256.706665 274.005310,261.387756 
	C274.843750,264.803650 275.451752,267.964966 275.620789,271.555176 
	C269.544312,273.841461 264.626862,272.117371 260.048737,268.877808 
	C258.350006,267.675751 256.748962,266.335632 255.103348,265.058441 
	C256.042938,263.695099 256.982544,262.331787 257.946716,260.668671 
z"/>
<path fill="#1B1D1A" opacity="1.000000" stroke="none" 
	d="
M254.997162,265.448730 
	C256.748962,266.335632 258.350006,267.675751 260.048737,268.877808 
	C264.626862,272.117371 269.544312,273.841461 275.610413,271.972534 
	C276.039001,271.960938 276.032379,271.968903 275.883728,272.291992 
	C274.681793,278.150482 270.711121,280.971497 265.987488,283.091949 
	C256.214783,282.311646 251.920731,275.635254 254.997162,265.448730 
z"/>
<path fill="#EEF4F8" opacity="1.000000" stroke="none" 
	d="
M241.079483,260.540710 
	C243.653961,259.035431 246.243164,257.852142 249.401276,256.344696 
	C251.086090,255.826141 252.195999,255.581802 253.319031,255.446243 
	C257.514801,254.939774 261.714874,254.468933 265.913330,253.984726 
	C263.428802,254.958649 260.944305,255.932587 258.284546,257.167603 
	C255.709229,260.375366 253.309204,263.322052 250.442551,266.605072 
	C249.110336,266.570587 248.073334,266.391754 247.407364,265.797302 
	C243.448563,262.263672 242.405991,262.550171 240.014755,268.020142 
	C239.469238,268.174713 238.923706,268.329254 238.378189,268.483795 
	C238.575455,267.235657 238.772705,265.987488 238.999207,264.390991 
	C239.717056,262.982666 240.405640,261.922668 241.079483,260.540710 
z"/>
<path fill="#D9DFE8" opacity="1.000000" stroke="none" 
	d="
M240.350708,268.067688 
	C242.405991,262.550171 243.448563,262.263672 247.407364,265.797302 
	C248.073334,266.391754 249.110336,266.570587 250.326508,266.949768 
	C250.504074,269.034210 250.331085,271.110352 250.125427,273.583191 
	C246.957397,272.025055 243.822021,270.070160 240.350708,268.067688 
z"/>
<path fill="#2C2E2A" opacity="1.000000" stroke="none" 
	d="
M266.236359,283.342926 
	C270.711121,280.971497 274.681793,278.150482 275.891235,272.290466 
	C276.885986,272.912964 278.575470,274.028870 278.426453,274.780151 
	C277.379669,280.057739 272.124847,283.768494 266.236359,283.342926 
z"/>
<path fill="#7E3136" opacity="1.000000" stroke="none" 
	d="
M251.789795,203.054474 
	C251.910370,203.314087 251.743134,203.639191 251.294647,204.019836 
	C251.176270,203.756912 251.339111,203.438431 251.789795,203.054474 
z"/>
<path fill="#7E3136" opacity="1.000000" stroke="none" 
	d="
M252.695221,202.283844 
	C252.823227,202.453949 252.675171,202.710449 252.165833,202.964447 
	C252.221710,202.918716 252.426575,202.721497 252.695221,202.283844 
z"/>
<path fill="#C9D2DC" opacity="1.000000" stroke="none" 
	d="
M117.334351,259.001221 
	C117.000702,258.996338 117.056099,258.589905 117.123566,258.397095 
	C117.891609,258.145630 118.592194,258.087006 119.645370,258.056030 
	C119.221313,258.391113 118.444656,258.698608 117.334351,259.001221 
z"/>
<path fill="#909AB4" opacity="1.000000" stroke="none" 
	d="
M414.166168,240.211548 
	C417.105652,242.308548 420.016022,244.772659 423.010712,247.562286 
	C418.093201,247.922012 415.525513,244.972992 414.166168,240.211548 
z"/>
<path fill="#2C2E2A" opacity="1.000000" stroke="none" 
	d="
M421.651611,220.067444 
	C422.149841,219.921951 422.327637,219.944901 422.760864,219.884094 
	C426.647034,219.909576 430.277740,220.018814 434.355804,220.092941 
	C427.825989,222.027618 420.842926,223.986771 416.112793,230.596252 
	C415.521576,230.884277 415.085022,230.878204 414.323883,230.913818 
	C412.571167,230.313110 411.143005,229.670731 409.359711,229.013397 
	C409.070343,228.003769 409.136108,227.009064 409.141663,225.644867 
	C413.164734,223.595535 417.247955,221.915726 421.651611,220.067444 
z"/>
<path fill="#F6F8FB" opacity="1.000000" stroke="none" 
	d="
M308.898254,243.962311 
	C307.685425,244.979507 306.549835,246.112640 305.240387,246.984680 
	C303.583252,248.088242 301.784576,248.979340 299.985657,250.307159 
	C292.561768,251.428940 285.199158,252.205643 277.413757,252.999725 
	C276.839966,252.712967 276.688904,252.408829 276.188599,251.641083 
	C274.211243,250.956070 272.588989,250.616028 270.953888,250.535431 
	C265.979889,250.290207 261.000977,250.145142 256.096558,249.592346 
	C259.564758,248.484131 262.978149,247.816971 266.351013,246.985428 
	C269.927277,246.103745 273.465057,245.065887 277.019623,244.096237 
	C277.765991,244.061188 278.512390,244.026123 279.915100,244.290268 
	C282.046997,244.725128 283.548615,245.106964 284.993713,244.954193 
	C291.565948,244.259430 298.113007,243.313812 304.692017,242.705872 
	C306.043854,242.580933 307.493622,243.515884 308.898254,243.962311 
z"/>
<path fill="#C9D2DC" opacity="1.000000" stroke="none" 
	d="
M256.023956,249.961090 
	C261.000977,250.145142 265.979889,250.290207 270.953888,250.535431 
	C272.588989,250.616028 274.211243,250.956070 275.948212,251.536102 
	C272.969879,252.602921 269.882690,253.311096 266.354431,254.002014 
	C261.714874,254.468933 257.514801,254.939774 253.319031,255.446243 
	C252.195999,255.581802 251.086090,255.826141 249.561523,256.024902 
	C249.152863,256.029297 249.010452,255.564667 249.000122,254.991364 
	C248.669312,253.760056 248.348831,253.102051 248.028351,252.444031 
	C247.679413,252.911041 247.330490,253.378052 246.981567,253.845062 
	C246.568405,253.956970 246.155228,254.068878 245.430511,254.258148 
	C243.522659,249.568451 244.885178,247.924606 251.652390,247.325867 
	C253.408432,248.425522 254.716202,249.193314 256.023956,249.961090 
z"/>
<path fill="#B6C1D0" opacity="1.000000" stroke="none" 
	d="
M317.855652,254.631683 
	C314.126160,256.547913 310.459534,257.222870 307.967285,252.252747 
	C308.197174,251.437714 308.461945,251.019501 308.824036,250.371399 
	C313.193237,248.698975 316.142151,250.045120 317.855652,254.631683 
z"/>
<path fill="#C9D2DC" opacity="1.000000" stroke="none" 
	d="
M110.195992,259.319824 
	C110.753426,259.063049 111.503471,259.038635 112.628616,259.034607 
	C112.132011,259.220734 111.260315,259.386444 110.195992,259.319824 
z"/>
<path fill="#D9DFE8" opacity="1.000000" stroke="none" 
	d="
M361.399597,209.046143 
	C361.458313,207.445175 361.910187,205.814209 362.718811,204.083542 
	C362.647949,205.661285 362.220337,207.338715 361.399597,209.046143 
z"/>
<path fill="#E9EDF2" opacity="1.000000" stroke="none" 
	d="
M309.287323,244.010712 
	C307.493622,243.515884 306.043854,242.580933 304.692017,242.705872 
	C298.113007,243.313812 291.565948,244.259430 284.993713,244.954193 
	C283.548615,245.106964 282.046997,244.725128 280.288696,244.303009 
	C286.615997,243.016205 293.224670,242.006531 299.836853,241.020309 
	C302.278931,240.656052 304.729248,240.346985 307.600525,240.011597 
	C312.590088,240.305954 317.152435,240.655258 321.721191,240.867523 
	C323.299683,240.940872 324.894043,240.673431 326.706055,240.328384 
	C327.300568,240.482239 327.670197,240.869354 327.889771,241.761703 
	C323.492249,243.181656 319.244781,244.096390 314.997284,245.011139 
	C313.223663,244.693802 311.450012,244.376450 309.287323,244.010712 
z"/>
<path fill="#E9EDF2" opacity="1.000000" stroke="none" 
	d="
M256.096558,249.592346 
	C254.716202,249.193314 253.408432,248.425522 252.043030,247.324310 
	C252.565903,246.449753 253.114624,245.478638 253.731750,245.432999 
	C261.192108,244.881439 268.662506,244.466461 276.574951,244.056076 
	C273.465057,245.065887 269.927277,246.103745 266.351013,246.985428 
	C262.978149,247.816971 259.564758,248.484131 256.096558,249.592346 
z"/>
<path fill="#B6C1D0" opacity="1.000000" stroke="none" 
	d="
M247.234955,253.992889 
	C247.330490,253.378052 247.679413,252.911041 248.028351,252.444031 
	C248.348831,253.102051 248.669312,253.760056 248.975693,254.749603 
	C248.470505,254.767685 247.979431,254.454193 247.234955,253.992889 
z"/>
<path fill="#D9DFE8" opacity="1.000000" stroke="none" 
	d="
M315.045197,245.382416 
	C319.244781,244.096390 323.492249,243.181656 327.967743,242.029480 
	C328.719543,242.343765 329.243347,242.895508 329.892029,243.706543 
	C326.157288,245.304947 322.344330,246.825211 318.401520,247.841721 
	C317.535706,248.064926 316.208069,246.496857 315.045197,245.382416 
z"/>
<path fill="#1B1D1A" opacity="1.000000" stroke="none" 
	d="
M444.528534,234.548172 
	C444.477295,234.578201 444.579773,234.518143 444.528534,234.548172 
z"/>
</svg>